<?xml version="1.0" encoding="UTF-8"?>
<!-- Generator: Adobe Illustrator 26.5.0, SVG Export Plug-In . SVG Version: 6.00 Build 0)  -->
<svg version="1.1" id="Layer_1" xmlns="http://www.w3.org/2000/svg" xmlns:xlink="http://www.w3.org/1999/xlink" x="0px" y="0px" viewBox="0 0 509 716.1" style="enable-background:new 0 0 509 716.1;" xml:space="preserve">
<style type="text/css">
	.st0{fill:#B8B8B8;stroke:#FFFFFF;stroke-width:0.5;}
	.st1{fill:none;stroke:#000000;stroke-width:0.5;}
</style>
<g id="제주특별자치도">
	<path id="서귀포시" class="st0" d="M454.8,669.3l21.4-9.5l0.4,0.6l0.2,0l2.8,0.5l-0.6,3.2l1.7-3.6l1.2,3.3l-14.3,22.6l-8.1,0.8   l-4.3,4.4l-11.2,0.7l-7.8,5.9l-10.3-0.9l-6.5,2.3l-1.8-2.5l-11.5,1.5l-5.7-1.6l-7.5,7l-13.2-13.7l3.1-2l6.9,3.7l0-2.4l6.6-4.4   l6.1-4.1l8.4,0.1l4.3-0.6l0.4-1.4l5.8-0.3l5.2-0.4l7.4-1.8l0.1,0l1.6-0.4l12-5.3l3.6-1.8l0,0l3.4,0L454.8,669.3z"/>
	<path id="제주시" class="st0" d="M483,653.3l1.7,5.3l-3-0.7l0.7-4.3L483,653.3z M379.8,690.2l-0.3-9.3l19.6-19.7l42.2-10   l1.2-3.1l23.8-0.3l4.1,5.3l5.9,0.7l1.3,2.9l-1.6,3.1l-21.4,9.5l-0.1-0.1l-3.4,0l0,0l-3.6,1.8l-12,5.3l-1.6,0.4l-0.1,0l-7.4,1.8   l-0.1,0l-5.1,0.4l0,0l-5.8,0.3l-0.4,1.4l-4.3,0.6l-8.4-0.1l-6.1,4.1l-6.6,4.4l0,2.4l-6.9-3.7L379.8,690.2z"/>
</g>
<g id="경상남도">
	<polygon id="합천군" class="st0" points="296.4,438.7 305.8,447 311.1,461.6 305.9,463.2 305.6,466.3 314.3,468.5 324.1,465.9    330,467.6 331.6,472.4 330,484.4 333.7,488 319.5,488.5 310.9,493.8 310.9,500.6 309.5,506.1 295.8,510.8 292,503.3 282.8,498.1    280,487.7 285.1,469.5 291.4,462.5 296.8,461.6 289.4,445.7  "/>
	<polygon id="거창군" class="st0" points="270.2,426.5 271.3,430.1 274.7,429 275.4,434.9 282.5,434.4 286.4,439 294.7,437.3    296.4,438.7 289.4,445.7 296.8,461.6 291.4,462.5 285.1,469.5 280,487.7 269.5,486.2 266.7,479.7 264,477.6 268.6,471.6    269.3,464.1 263.9,465.6 254.7,454.7 250.7,456.1 244.1,448.6 246.6,445.5 252.3,436.7 264.7,433.3 266.9,427  "/>
	<polygon id="함양군" class="st0" points="244.1,448.6 250.7,456.1 254.7,454.7 263.9,465.6 269.3,464.1 268.6,471.6 264,477.6    266.7,479.7 250.8,516 245.4,518.9 236.7,516.8 236.7,516.8 235.3,511.6 243.5,499.1 238.7,497 240.8,492.7 237.6,485 232,482.2    238.5,472.1 236.5,467.8  "/>
	<polygon id="산청군" class="st0" points="266.7,479.7 269.5,486.2 280,487.7 282.8,498.1 292,503.3 295.8,510.8 299.9,516.8    292.8,516.5 291.5,520.5 283.5,523.8 281.1,530.1 275.2,529.2 273.7,533.7 271.2,533.1 268.5,528.1 265.2,533.2 256.6,534.4    247.5,527.4 245.4,518.9 250.8,516  "/>
	<path id="하동군" class="st0" d="M275.1,569.6L275.1,569.6L275.1,569.6L275.1,569.6z M236.7,516.8l8.7,2.1l2.1,8.5l9.2,7.1   l8.6-1.3l3.3-5.1l2.7,5.1l6.3,11.7l0,0l-7.7,1.1l4.1,3.9l-2.2,5.3l4.8,5.8l-1,5.4l-2.1-1.3l2.1,2.5l-0.4,2l0,0l0.4,0.9l-1.5,2.8   l-3.1,2.9l-5.1,0.8l-0.9-2.6l-2.7,3.1l-1.4-0.1l-2.9,0.6l-3.4-4.1l3.5-6.8l-2.4-6.3l-18.5-20.6l-6.1-19.7L236.7,516.8z"/>
	<path id="남해군" class="st0" d="M290.2,593L290.2,593L290.2,593L290.2,593L290.2,593z M289.3,580.9l-2.4,8.5l4.8-4.7l0.8,6.9   l4.1,2.6l-2.4,0.8l-0.3,0l-2.1-0.8l-1.7-1.1l0,0l0,0l-2.1,0.8l-6.2-1.1l-1.1-3.6l3.3-3.8l0.4-1.3l2.4-2.4l0.3-0.3l1-0.2   L289.3,580.9z M268.3,578.4l3.7-1.4l4.6,3.3l0,0.1l-0.2,2.1l-4,6.2l2.5,5.8l3.5,4.1l5.9-3.7l5.2-0.2l2.4,0.9l1.3,1l-0.6,10.4   l0.1,0.1l-2.6,3.9l3.3,3l-4.6,1.4l-1.2-3.7l-7.4,2.4l-0.7-10.6l-6.3,2.4l0.3,5.3l-6.2,0l-2.7-3.5l2.9-4.1l-6.1-10.9l2-5.8l-0.1-1.6   l0.1-1.5l5.5,0.9l-2.1-3.6l0.7-1.7L268.3,578.4z"/>
	<path id="고성군_00000028326800830962186490000011380967607044266940_" class="st0" d="M320.7,581.6l-0.7-3.9l-8.8,1.2l-0.3,3.9   l-1.1,2.4l-4.1-2.5l-2.6,3.2l-2.3-3.2l-2.1,1.6l1.2-3.6l1,0l1.9-9.1l4.5-0.7l-1.5-4.2l3.3-6.1l3.4-3.5l-3-2.2l2.8-4.3l17.8-2.1   l6.6,6.7l3.5-0.5l-0.5,4.7l-7.5,1.3l0.6,5.2l9.4-7.2l1-1.4l0.2-0.1l2-0.6l0.1-0.1l1.8,1.5l-2.9,2.9l5.4,5.3l-2,2.1l-0.8,1.1   l-9.1-0.1l4.5,3.3l-13.4,5.9l-2.2-4.3l-2.5,7.8l-0.1,0.1l-2.5-0.5L320.7,581.6z"/>
	<polygon id="창녕군" class="st0" points="352.6,461.3 353.6,470.6 360.8,476.7 358.5,494.3 368.5,501.3 368.6,509.3    367.4,509.8 362.2,506.5 359,508.5 350.8,505.4 346.6,508.6 341.2,506.8 340.5,505.3 333.3,499.6 334.1,496.2 339.1,492.7    333.7,488 330,484.4 331.6,472.4 332.5,472.8 349.6,468.2  "/>
	<polygon id="함안군" class="st0" points="341.2,506.8 346.6,508.6 350.8,505.4 359,508.5 356.9,512.9 360.5,525.5 348.3,525.4    346.9,538.8 338.9,541.7 336.5,536.1 332.5,538 320.5,528.2 325.8,511.9 335.4,516.2 334.3,512.5 339.9,511.3  "/>
	<polygon id="의령군" class="st0" points="310.9,500.6 310.9,493.8 319.5,488.5 333.7,488 339.1,492.7 334.1,496.2 333.3,499.6    340.5,505.3 340.5,505.3 341.2,506.8 341.2,506.8 339.9,511.3 334.3,512.5 335.5,516.2 335.4,516.2 325.8,511.9 320.5,528.1    310.7,528.7 305.2,513.7 299.9,516.8 295.8,510.8 309.5,506.1 310.9,500.6  "/>
	<polygon id="양산시" class="st0" points="415.3,524.5 409.3,516 397.2,507.8 399.2,502.8 403.5,501.9 401.6,498 408.9,494.4    407.7,488.4 412.2,484.8 420.1,484 431.4,497.4 438.5,498.6 441.3,503.2 439,506.3 436.2,512 428.4,509.4 430.6,512.1 427.4,519.5    419.6,524.4  "/>
	<path id="거제시" class="st0" d="M353.8,579.1l-0.8,0.2l-0.6-0.2l-0.3-0.7l-0.4-5.1l0.3-1.2l0.1-0.1l1.9,0.4L353.8,579.1z    M360.6,581.5l5.4,3.4l-5-8.5l2.5-3.6l5.6,1.9l0.6-5.1l0.6-1.3l1.1-2.1l0.4-1.7l0.5-0.9l-0.1-2l5.9,2.5l-3.6,4.5l4.2,12.6l-3.7,5.7   l7.4-2.5l-3.6,4.6l1.5,3.3l-1.6,0.7l2.3,8l-9.4-3.7l0.8,4.2l-4.5,3.9l5.7,3.8l-7.1,0l1.5,4.6l-7.9,0.1l3.9-3.9l-4.1-1.1l2.8-6   l-5.3,1.7l1.6-3.1l1.5-1.3l2.7-5.6l-3.8-3.8l-7.3,7.3l-1.1-4.7l-3.4-0.3l-0.9-3.2l-0.4-1.9l2.5-4.4l1.1-1.7l1.9-0.7l1.1-1.1l1.4,0   l4,3.6L360.6,581.5z"/>
	<polygon id="밀양시" class="st0" points="368.6,509.3 368.5,501.3 358.5,494.3 360.8,476.7 372.9,474.9 385.4,479.1    387.6,475.6 393.1,475.4 397.5,468.2 405.2,468.2 410.5,472.2 413.1,470.4 415.3,476 409.2,479.8 412.5,482.2 412.2,484.8    407.7,488.4 408.9,494.4 401.6,498 403.5,501.9 399.2,502.8 397.2,507.8 395.3,505.8 383.1,513.8  "/>
	<path id="김해시" class="st0" d="M383.1,513.8l12.1-8l1.9,2.1l12.1,8.1l6,8.6l-2.1,5.9l-14.2,3.7l-1.1,9.9l-1.6-2.7l-8.9,1.8   l-6.8-1.5l-2.1-11l-4.4-11L383.1,513.8z"/>
	<path id="사천시" class="st0" d="M299.9,580.4l-5.6,0.2l-4.8-5.2l2.7-2.2L290,565l3-10.6l-4.8,9.8l-1.4-3.3l-4.7,1.7l5.8,4.5   l-0.7,3.7l-7.1,0.4L278,572l-1.2-2l-0.2-2.8l-1-0.8l1-5.4l-4.8-5.8l2.2-5.3l-4.1-3.9l7.7-1.1l7.7-0.5l0.6,6.4l6.2-2.7l5.3,4.7   l5.9-2.3l4.4,3.1l-3.1,2.8l4.7,4.1l-3.3,6.1l1.5,4.2l-4.5,0.7l-1.9,9.1l0,0L299.9,580.4L299.9,580.4z"/>
	<path id="통영시" class="st0" d="M333.6,591.3l6.3-1.5l-5.9-4.3l0,3.2l-3.1-2.6l-2.9,1.8l-3.9-3.8l0.3-0.5l0.6-0.6l5.8,0.2   l-2-2.5l8.4-7.8l4.1,1.5l-1.7,1l2.1,3.6l-3.1,5.4l1.6,3.9l3.5-6.8l2.2,6.8l-1.5-1.6l-0.5,5.5l-1.2,1l-4.3,1l-1.6,0.8l-0.4,0.1   l-1-0.7l0.1-0.7l0,0L333.6,591.3z M334.6,597.2l-5.3-2l0.1,0l1.2-2.2l2.8,1.3l2,3.2l-0.1-2.5l0.4,0.3l0.4,0.2l1,0l0.2-0.1l1.1-1   l0,0l3.1,0.5l1.1,0.4l0.1,1.1l0.1,2.6l-0.2,1.5l0,0l-0.6,2.3l-4.8,2.3l-4.4-4.7L334.6,597.2z M345.7,602.3l-0.6-2l0.1-1.5l0.5,2.6   l2.6-1.6l-2.6-2.5l0.7-0.7l4.9,7.9l-2.4,1.5l-2.9-1.6l0.6-1L345.7,602.3z M311.4,596.9l2.2-3.2l0,0l0.6-0.1l0.1,0l1.7-0.4l3.9,4.2   l-3.3,2.9L311.4,596.9z M318.3,623.3l5.7,2.8l-7.4,3.2l-0.6-6.4L318.3,623.3z M309.2,595.6l-1.5-4.2l3.5-1l4.5,2.3l-1.5,0.4   l-0.6-0.1L309.2,595.6z M329.3,595.1L329.3,595.1L329.3,595.1L329.3,595.1z M335.4,593.6L335.4,593.6L335.4,593.6L335.4,593.6z"/>
	<polygon id="진주시" class="st0" points="277.5,544.8 271.2,533.1 273.7,533.7 275.2,529.2 281.1,530.1 283.5,523.8    291.5,520.5 292.8,516.5 299.9,516.8 305.2,513.7 310.7,528.7 320.5,528.1 332.5,538 330.2,548.5 312.3,550.5 309.6,554.8    312.6,557 309.2,560.5 309.2,560.5 304.5,556.4 307.6,553.6 303.1,550.5 297.2,552.8 291.9,548.1 285.8,550.8 285.2,544.4  "/>
	<path id="창원시_진해구" class="st0" d="M377.8,553.1L377.8,553.1L377.8,553.1L377.8,553.1z M387.3,543.2l6.4,6.8l-1.8,3.7   l-2.2,2l-3.9,0.1l2.7-3.3l-1.7-2.3l-2.9,7l-3.2-2l0.3-2.9l-3.2,0.9l-3.8-1l0-7.8l-3,5.1l-2.6-4.9l-2.2,0.8l-0.1,2l-2.8-1l0.1-0.3   l0.2-0.2l5.7-6l11.1,1.9L387.3,543.2z"/>
	<polygon id="창원시_마산회원구" class="st0" points="346.9,538.8 348.3,525.4 360.5,525.5 365.8,534 364.6,534.8    361.8,535.1 355,534.7 351.9,540.5  "/>
	<path id="창원시_마산합포구" class="st0" d="M360.4,536.2l-0.6,4.8l0.8,1.2l0.3,0.7l1.2,2.9l-1.9,2.1l0.6,0.4l-0.2,0.8   l5.4,5.7l-2,1.5l2.4,1.3l-7.5,1.8l2.1-1.9l-3.3,0.1l0.2-2.4l2.7-0.7l-5-0.9l-1.2-4.3l-2.5,3.6l-8.7-1.2l3.6,4.5l-1.7,0.4l-1.8,0.4   l-2,1.5l-1.5,1.1l0.5-4.7l-3.5,0.5l-6.7-6.7l2.3-10.5l4-1.8l2.4,5.5l8-2.9l5,1.7l3.1-5.8l5.4-1.4L360.4,536.2z"/>
	<polygon id="창원시_성산구" class="st0" points="368.7,530.5 378.4,530.7 380.5,541.7 369.4,539.8 363.7,544.4 362.2,542.2    361.7,541.1 361.4,540.4 361,536.9 364.7,534.9 366.1,534.1 366.6,533.6 366.6,533.4 368.7,530.5  "/>
	<polygon id="창원시_의창구" class="st0" points="378.4,530.7 368.7,530.5 366.6,533.4 366.6,533.4 366.5,533.6 366.5,533.6    365.9,534 365.8,534 360.5,525.5 356.9,512.9 359,508.5 362.2,506.5 367.4,509.8 367.4,509.8 368.6,509.3 383.1,513.8 374,519.7     "/>
</g>
<g id="경상북도">
	<path id="울진군" class="st0" d="M446.4,234.5l8.1-3.5l1.2,7.2l7.4,6.3l-2.5,4.6l1.1,21.6l7.9,24.1l-0.3,7.7l-5.8,6.8l-5.1-3.9   l-3.6,2.9l-10.8-3.4l3.1-7.1l-3-4l5.2-5.7l-5.4-8.1l1.5-5l-2.8-1.9l-2.8,4l-4.4-0.5l-1.9-3.7l-4.5,0.4l0,0l-2.4-7.6l-7.3-5.2   l1.5-3.1l1.7-7l6.7,0.7l3.1-3.5l6.6,0.4l-1.7-5.5L446.4,234.5z"/>
	<polygon id="봉화군" class="st0" points="376.5,280.5 375.3,276 368.8,279.8 364.7,277.6 364.1,272.5 368.2,267.9 369.6,262.1    370.9,259.2 371.1,254.5 372.4,249.7 378.4,250.7 381.6,240.5 393.3,248 394,246.5 396.3,247.8 399.3,240.4 402.3,240 407.7,241.4    416.7,244.3 421.1,238.7 432.5,247.7 429.4,251.2 422.6,250.5 420.9,257.5 419.1,261.4 426.7,265.8 429.2,273.4 422.3,281.3    408,290.2 408.8,294.1 403.9,290.4 396.1,290.5 389.8,284.8 386.2,286.9 385.4,284.1 384.6,282.7 380.7,285.2 378.2,284.9    377.6,286.7 377.6,286.7 375.7,287.9 373.7,282.9  "/>
	<polygon id="예천군" class="st0" points="340.5,279.2 344.6,281.3 343.9,290.4 353.5,291.5 358.6,302.1 360.4,309.6    350.4,313.5 351,317.7 347,317.5 346.5,322.6 338.4,330.5 331.7,333.3 330.4,329.1 327.4,329.9 324,340.9 317.4,337.5 318.1,328.3    321.6,321.6 317.1,316.5 322.9,312.2 323.1,309.4 325.9,311.6 328.4,310 324.5,305.9 326,297 330.6,294.5 330.4,286.5 330.4,286.5    337,284.9  "/>
	<polygon id="칠곡군" class="st0" points="321.7,398.3 326.6,397.7 330.5,402.5 336,397.5 344.3,400.5 347,392.1 356.1,394.4    357,402.6 364.8,399.6 363.6,407.7 366.1,410 361.4,413.5 356,415.9 351.9,414.8 352.6,422.3 352.6,422.4 352.2,423 352.2,423    352.1,423.7 352,423.7 351.3,424.8 351.2,424.8 349,428.8 344.6,427.8 345.4,422.1 342.5,420.8 335.6,427.6 335.1,421.1 329,419.1    321.5,405.2  "/>
	<polygon id="성주군" class="st0" points="294.7,437.3 295.9,432.2 291,422.2 296,424.6 296.9,419.3 304,417.4 306.2,406.6    313,403.5 321.5,405.2 329,419.1 335.1,421.1 335.6,427.6 334.1,435.2 331.6,444.2 320.4,439.1 316.9,446.5 311.6,440.9    306.5,440.9 305.8,447 296.4,438.7  "/>
	<polygon id="고령군" class="st0" points="334.1,435.2 345,437.9 345,437.9 346.4,440.7 338.5,441.7 333.8,449.5 340.1,458    329.8,458.3 336.3,468.4 332.5,472.8 331.6,472.4 330,467.6 324.1,465.9 314.3,468.5 305.6,466.3 305.9,463.2 311.1,461.6    305.8,447 306.5,440.9 311.6,440.9 316.9,446.5 320.4,439.1 331.6,444.2  "/>
	<polygon id="청도군" class="st0" points="414,435.1 409,452.1 412.9,458.8 417.3,458.6 418.6,465.5 413.1,470.4 410.5,472.2    405.2,468.2 397.5,468.2 393.1,475.4 387.6,475.6 385.4,479.1 372.9,474.9 360.8,476.7 353.6,470.6 352.6,461.3 352.3,456.7    363,452.5 364.6,458.2 373.3,451.6 382.5,458.1 385.6,451.4 393.3,451.7 398.9,448.1 400.4,450.8 405.2,444.3 405.2,444.2    408.4,436.8 408.4,436.8  "/>
	<path id="영덕군" class="st0" d="M444.1,305l10.8,3.4l3.6-2.9l5.1,3.9l-1.7,7.6l5.8,13.3l-8.8,38l-9.1,0.2l-1-8.7l-5.8,0.5   l-13.1-27.7l9.1,1.6l0.2-3.9l2.7,0.5l-1.6-3.6l1.3-4.6l-3.8-4l1.8-11.3L444.1,305z"/>
	<polygon id="영양군" class="st0" points="408.8,294.1 408,290.2 422.3,281.3 429.2,273.4 433.7,273 435.6,276.7 439.9,277.2    442.7,273.2 445.6,275.1 444.1,280.1 449.4,288.2 444.2,293.9 447.2,297.9 444.1,305 439.5,307 437.7,318.4 441.5,322.4 440.3,327    441.9,330.6 439.2,330.1 439,334 429.8,332.4 426.9,331.9 426.6,327.1 419,326 416.2,320.2 410.3,318.1  "/>
	<polygon id="청송군" class="st0" points="410.3,318.1 416.2,320.2 419,326 426.6,327.1 426.9,331.9 429.8,332.4 442.9,360.2    432.9,375.5 428,369.7 418.7,368.4 418.7,368.5 418,370.3 421.6,374.1 410.1,384.7 398.1,384.1 396.5,380.2 396.3,371.7    391.8,370.4 397.1,364.7 402.3,363.3 408.8,347.3 406.6,338.8 409.7,330.3 406.7,328.1  "/>
	<path id="의성군" class="st0" d="M324,340.9l3.5-11.1l3-0.8l1.3,4.2l6.7-2.8l3.2,4.6l4.8-4.2l7.4,4.2l7,13.3l12.9-6.8l0.5-4.7   l4.7-1.9l10.6,5.6l2.6,10l3.6,2l1.6,12.2l-5.3,5.7l4.5,1.3l0.2,8.5l-5.9-2.5l-1.8-0.3l-3.3,4.2l-17.4-4.6l-2.6,2.2l-0.5-8.4   l-5.3-2.5l-5.3,0.6l-4.1-3.9l-8.8-4.2l-5.2,6.3l-6.2-8.2l-3.4-1.4l-2.9,3l-3-2.5l6.4-9.2L324,340.9z"/>
	<polygon id="군위군" class="st0" points="336.5,367 341.6,360.7 350.4,364.8 350.4,364.8 354.5,368.8 359.8,368.2 365.1,370.7    365.6,379.2 368.2,377 385.5,381.5 388.8,377.4 388.8,377.4 390.7,377.6 390.7,377.6 396.5,380.2 398.1,384.1 397.2,388.9    397.2,388.9 393.5,388.6 386.5,397.9 379.2,394.3 373.2,405.9 373.2,405.9 373.1,409 373.1,409 370.4,409.5 370.3,409.5 366.1,410    363.6,407.7 364.8,399.6 357,402.6 356.1,394.4 356.1,394.3 353.1,386.6 355.2,384 350.8,380.3 348.3,382.9 346,375.3 340.4,377.7    337.4,373.5 337.4,373.5 336.5,367  "/>
	<polygon id="경산시" class="st0" points="378.1,412.5 384.7,413.2 394,418.5 397.3,435.7 408.4,436.8 405.2,444.3 400.4,450.8    398.9,448.1 393.3,451.7 385.6,451.4 382.5,458.1 373.4,451.6 371.8,444.4 376.3,441.7 377.2,433.7 380.4,433.7 381.9,428.9    377.7,413.7 377.7,413.6  "/>
	<polygon id="문경시" class="st0" points="314.4,275.7 330.4,286.5 330.6,294.5 326,297 324.5,305.9 328.4,310 325.9,311.6    323.1,309.4 322.9,312.2 317.1,316.5 321.6,321.6 318.1,328.3 312.4,328.5 311.9,322.2 299.3,314.9 293.3,317.6 291.1,326.8    281.6,327.3 281.4,332.1 275.7,329.1 274.7,318.2 275.7,308.4 268.3,305.7 270.8,303.7 275.2,304.3 279.1,296.9 279.2,297    293,301.6 288.2,295.4 291.5,284.6 295.8,287.6 300.8,282 309.4,284.8 309.4,284.8 311.3,285.1 310.6,279.7 313.8,279.9  "/>
	<path id="상주시" class="st0" d="M258.8,318.2l7.5-1.8l-1.5-3.2l4.1-3.6l5.6,8.5l1,10.9l5.7,3l0.2-4.7l9.5-0.5l2.1-9.3l6.1-2.6   l12.6,7.2l0.4,6.3l5.8-0.2l-0.7,9.2l6.5,3.4l3.3,7.7l-6.4,9.2l-4.4-2l-3,8.8l-9.4,1.3l-2.2,6l-7.5,2.5l-4-1.7l-4.5-3.1l-6.3,3.1   l-7.1-7.6l-2.7,4.3l-3.8,0l-0.9-6.7l5.8-6.3l-1.4-2.3l-0.6-17.9l3.4-6.6L258.8,318.2z"/>
	<polygon id="영천시" class="st0" points="373.1,409 373.2,405.9 379.2,394.3 386.5,397.9 393.5,388.6 397.2,388.9 398.1,384.1    410.1,384.7 417.1,386.5 420.5,393 424,391.7 423.5,395.8 430.9,402.1 428.8,405.3 430.1,409.1 425.9,409.8 429,422 426.7,423.7    420.2,420 415.4,425.5 414.1,435 414,435 408.4,436.7 397.3,435.7 394,418.5 384.7,413.2 378.1,412.5  "/>
	<polygon id="영주시" class="st0" points="365.6,245 372.8,248.9 372.4,249.7 371.1,254.5 371.1,254.4 370.9,259.2 370.9,259.2    369.6,262.1 369.6,262.1 368.2,267.9 368.2,267.9 364.1,272.5 364.7,277.5 368.8,279.8 375.3,276 376.6,280.5 376.5,280.5    373.7,282.9 375.7,287.9 377.6,286.7 377,302.3 359.7,299.7 358.6,302.1 353.5,291.5 343.9,290.4 344.6,281.3 340.5,279.2    337.3,274.8 339.4,266.8 353.5,255.6 355.3,249.9 360.1,247 363.2,248.9  "/>
	<polygon id="구미시" class="st0" points="301.9,372 304.1,366 313.5,364.7 316.5,355.9 320.8,357.9 323.9,360.4 326.8,357.4    330.2,358.8 336.5,367 337.4,373.5 340.4,377.7 346,375.3 348.3,382.9 350.8,380.3 355.2,384 353.1,386.6 356.1,394.3 347,392.1    344.3,400.5 336,397.5 330.5,402.5 326.6,397.7 321.7,398.3 319.5,395.7 322.1,386 319,381.5  "/>
	<polygon id="안동시" class="st0" points="385.3,284.1 386.2,286.9 389.8,284.7 389.8,284.7 396.1,290.4 397.4,290 403.9,290.4    403.9,290.4 408.8,294.1 410.3,318.1 406.7,328.1 409.7,330.3 406.6,338.8 408.8,347.3 402.3,363.3 397.1,364.7 395.5,352.5    391.9,350.5 389.3,340.6 378.7,335 374.1,336.9 373.6,341.5 360.7,348.3 353.7,335.1 346.4,330.9 341.6,335.1 338.4,330.5    346.5,322.6 347,317.5 351,317.7 350.4,313.5 360.4,309.6 358.6,302.1 359.7,299.7 377,302.3 377.6,286.6 378.2,284.9 378.2,284.9    380.7,285.2 380.7,285.2 384.6,282.8 384.6,282.7 385.4,284.1  "/>
	<polygon id="김천시" class="st0" points="301.9,372 319,381.5 322.1,386 319.5,395.7 321.7,398.3 321.5,405.2 313,403.5    306.2,406.6 304,417.4 296.9,419.3 296,424.6 291,422.2 295.9,432.2 294.7,437.3 286.4,439 282.5,434.4 275.4,434.9 274.7,429    271.3,430.1 270.2,426.5 273.5,420.3 269.1,408.8 279.7,401.3 284.3,388 281.8,381.3 291.9,380.8 288.6,375.2 290.3,372.8    294.3,374.5  "/>
	<path id="경주시" class="st0" d="M430.9,402.1l3.9,4.2l8.4-7.7l4.9,2l-1.1,5.6l11,25.2l6.1,1l2.2-4.2l3.9,5.8l6.7,1.2l-6.8,29.4   l-12.3-4.2l-7.2,5.7l-5.3-2.6l0.1-6.3l-14.2-3.5l-8.7,5.1l0.6,7.8l-4.4-1.1l-1.3-7l-4.4,0.3l-4-6.7l5.1-17.1l1.3-9.5l4.8-5.5   l6.5,3.7l2.3-1.7l-3.1-12.2l4.2-0.8l-1.3-3.8L430.9,402.1z"/>
	<path id="포항시_북구" class="st0" d="M458.6,377.6L458.6,377.6L458.6,377.6L458.6,377.6L458.6,377.6z M462.1,385.2l0,4.6   l5.5,2.6l-7.6,8.2l-3.6,7.3l-8.4-7.4l0,0l-4.9-2l-8.4,7.7l-3.9-4.2l-7.4-6.4l0.5-4l-3.5,1.3l-3.5-6.5l-7-1.8l11.5-10.6l-3.6-3.8   l0.6-1.5l0.2-0.3l9.3,1.3l4.9,5.7l10-15.3l5.8-0.5l1,8.7l9.1-0.2l-0.2,9.4l0,0l0,0l1.6,3.5l0.5,0.1l1.2,3.6L462.1,385.2z"/>
	<path id="포항시_남구" class="st0" d="M477.7,402.2l0.7-1.4l4.1-5.4l3.4,11.5l-8,14.1l0.2,7.9l0,0l2.1,1.1l-3.2,5.1l-6.7-1.2   l-3.9-5.8l-2.2,4.2l-6.1-1l-11-25.2l1.1-5.6l8.4,7.4l2.6-5.5l1.8,3.2l5.8-0.4l-3.8,1.5l5.6,4.7l2.7-2.7L477.7,402.2z"/>
	<path id="울릉군" class="st0" d="M492.5,352.7l0.3,8.7l-5.4,5.2l-8.1-3l-2.4-7.5l13.9-4.7l1.1,1.1L492.5,352.7z M506.2,367.1   l0.3,0.3l-0.9,0.6l-0.1,0.1l-0.7-0.4l1-0.8l0.1,0.3L506.2,367.1z M504.4,366.6l-0.7,0.9l-1-1.3l1.1-0.7L504.4,366.6L504.4,366.6z    M504.1,366L504.1,366L504.1,366L504.1,366L504.1,366z"/>
</g>
<g id="전라남도">
	<path id="신안군" class="st0" d="M52.9,550.1l7.4,2.5l1.5,4.8l0.2,1.5l0,0.5l1.6,3l-1.1,1.8l-0.4,0.5l-1,1.1l-2.8-0.7l-0.8-0.4   l0.7-5.2l-3.5,2.1l-0.4-3.5l-5.1-0.9l-0.1-1.4l-0.3-3.6L52.9,550.1z M39.6,582.7l0.8,2l-2.3,1.4l0.7,2.6l-0.4,0.1l-0.2-0.1   l-1.5,0.9l-0.4,0.2l-1.7,0.4l-0.8,1.4l-0.6,0.1l-2.2-4.4l-1.9,1.8l-0.4,0.1l-3.9-0.9l-1.2-1.4l6-5.9l5.5,0.3l0.1-4.3L39.6,582.7   L39.6,582.7z M64.5,589.2l-0.5-3.7l3.1,0l-2.8-4l4.8,0l0.8,0.3l1.3,0.3l2,1.7l-5,3l7.1,3.4l-1.5,6.8l-6.5-6.2l-5.2,1.8l-0.3,0.3   l-1.4-0.3l-3.2-1l0.8-2.7L64.5,589.2z M39,602.9l4.9,0.6l0.3,0.6l1.5,1.8l1.7-0.2l2.6,1.2l0.9,3.4l0.4,0.6l-0.7,2.7l-3.7,1   l-1.5-4.6l-2.5,2.2l-5.5,0.8l0-0.8l-1.3-8.6l0.8,0.1L39,602.9z M19.9,602.2l7.5-4.3l0.1,0.3l0.1,6.6L24,605l-2.2-1.3l-1.7,6.4   l-0.3,0.6l-0.4,0.3l-0.1,0l-1.5,0.4l-0.2,0.1l-3.7-1.8l0.8-8.1L19.9,602.2z M22.5,608.6l2,2.9l4.8,2.6l-7.3,6.9l-0.5-0.2l-3.9-2.3   l-1.1-6.1l1.1-0.4l1.7-0.5l1.3-1.1L22.5,608.6z M33.3,556.5l2.5-0.2l-0.9-4.9l8.4-6.2l5.4,0.2l-4.5,1.7l-0.4,4.5l0.4,1.6l0,1.6   l-0.4,1.4l-0.5,2.1l-4,1l-1-0.6l0-2.1l-1.8,2.1L33.3,556.5z M42.1,586.3l6.1,3l-2.9-0.2l0.8,5.5l0,0l-2.7-1.1l-0.3,5.2l-3.1,0.7   l-3-2.7l-1.6-5.5l1.3-0.5l1.7-1.1l0.9-0.2l3.4,1.6L42.1,586.3z M33.9,625.3l6.2,3.3l0.6,2.3l-0.5,5.3l0.2,1.1l-0.2,0.3l-0.6-0.3   l-8.4,3.5l3.9-2.7l-3.6-2.4l2.4,0l1.5,0.9l1-2l2.1-2l-2.3-1.4L33.9,625.3z M43,564.7l6.6-0.4l0.8,7.8l0,0l-4.7,3.5l0,0l-0.9-0.2   l-0.7,0.4l2.8-6.4l-5.1-1L43,564.7z M47.3,618.8l4,5.5l2.1,0.4l-9.3,3.3l-1-0.4l1.3-4l-2.3-1.5l2-1.3L47.3,618.8z M31.9,633.6   l-2.3,1.9l-1.1-10l3.8-0.2l2.8,6.2l0.2,1.5l-0.3,1l-0.7,1l-0.2,0.1l-0.2-0.1L31.9,633.6z M46.8,597l3.2,2.9l-1.2,4.6l-1.6,0.5   l-1-0.2l-0.3,0.3l-1.3-1.1l-4.7-2.6l-0.5-0.3l4.1-1.6l3.3-0.1L46.8,597L46.8,597z M39.6,582.7L39.6,582.7L39.6,582.7L39.6,582.7z"/>
	<path id="진도군" class="st0" d="M28.6,678.1l3-4.2l6.5,2.2l0.7,4.6l-4.8-0.1L28.6,678.1z M63.1,666.5l0.4-3.1l3.4,1.2   L63.1,666.5z M55.4,640.8l5.7-8.1l4.9,2l1.2,1.4l0.1,2l4,0.2l5.2,9l0.3,1.8l-3.6,0l1.9,1.5l-0.8,4.1l-0.3,0.4l-2.1,3l-0.8,1.1   l-0.7,2l-2.4-3.4l-1.6,3.4l-5.6,1l0.7,2.4l-18,2.9l1.9-3.6l-3.9-0.4l-3.2-5.3l5.3-3.7l-1.7-2.7l7.3-3.8l0.9-2.8l1.3-1.6l0.2-0.2   l-0.4,2.8l1.3-2.1l3.3-1L55.4,640.8z"/>
	<path id="완도군" class="st0" d="M106.3,701.4l-2.8-2.1l-8,6l-3.6-2.6l3.6-6.1l3,0.7l1.4,0.7l1.3,0.3l0.8-0.2l0.5,0l1.3,0.2   l3.7,1.8l0,0.1L106.3,701.4z M110.7,693.5l2.4,0.8l1.9,2.7l-3.6,1.1l3.6,3.6l-3,5.6l-4.1-5.4l0.4-1.1l2.8-2.6l-2.3-1.7L110.7,693.5   L110.7,693.5z M142.2,691.1l3.5,4.7l-1.5,5.6l-7.6-2l1.1-5.7l1.9-1.6l1.5-0.9L142.2,691.1z M99.4,687.9l8.1,5l0,0l-3,0.4l1.8,2.8   l-3.8-1.5l0.1,3L100,697l-0.8-0.3l-1.8-2.2l1-1.3l-0.2-0.8l0.4-1.9l-0.3-2.4L99.4,687.9z M111.5,673.3L111.5,673.3L111.5,673.3   L111.5,673.3z M111.5,673.3L111.5,673.3L111.5,673.3L111.5,673.3L111.5,673.3z M125.2,672.5L125.2,672.5L125.2,672.5L125.2,672.5z    M129.3,671l1.8,1.7l3.7-3.9l8.1,2.2l-1.8,5.4l-11.5-1l-3.3-2l-1.1-0.7l-0.5,0.2l0.4-0.5l0,0l-0.1-0.6l3.5-1.1L129.3,671z    M166.2,668.6l3.1,3.7l-4.3-1.5l1.3,2.3l-4.6,3.7l1.3-4.9l-8.6-3.2l0,0l0.6-0.2l3.2-2.3l2-0.6l1.8,4.6l3.6-1.5L166.2,668.6z    M111.5,673.4L111.5,673.4L111.5,673.4L111.5,673.4l-1.6-2.1l0-3.2l-0.1-1.8l-0.1-0.3l0-0.9l0.5-0.9l0.5-1.1l4.1-1l0.4-0.2l5.8,2.9   l0.8,2.5l4.9,8.6l-1.4,1.9l2.1,2l-5.6-2.7l-0.2,2.8l-4.9-0.9L111.5,673.4z M134.9,660L134.9,660L134.9,660L134.9,660z M135,655.5   l1.1,3.6l-2.5,0.3l1.2,0.6l2.1-0.5l2,4.5l-0.1,0.1l-9.2,1l-1.8,4.7l-0.8-0.3l-0.9-1.5l1.8-2.8l-2.8-1.9l1-2.7l1.2-1.7l2.2-1.7   l1.6,0.1l1.5-0.7L135,655.5z"/>
	<polygon id="장성군" class="st0" points="104.7,532 107.3,521.3 111.6,518.3 111.5,517.2 112.4,517 112.6,517.1 114.4,513.4    116.9,514.6 122.8,509.5 121.7,505.9 125.7,503.3 124,498.7 124,497.7 128.2,495.3 128.2,495.3 134.7,492.4 140.5,496.4    146.9,505.8 147.5,509.2 139.3,518.4 141.6,529.2 135.9,532.8 125.7,531.9 126.3,528 120.5,535.3 112.5,538.3  "/>
	<path id="영광군" class="st0" d="M73.4,529.2l-2.8,0l3-3.7l-1.8-1.9l6-2.1l5.8-20.7l6.6,0.1l1.9,2.6l-1.8,4.2l6.9,12.5l6.8,0.8   l-0.1-4.4l7.7,1.7l-4.3,3l-2.6,10.7l-4,6.8l-10.8-1l-5.4,3.2l-3.5-2.2l-4.9,3.5l-2.1-3.2l2.2-0.1l0.8-4.2l-5.1,3l0.7-3.3l-5.4,0.5   l1-6l2,2l1.2-2.6L73.4,529.2z"/>
	<path id="함평군" class="st0" d="M76.2,542.4l4.9-3.5l3.5,2.2l5.4-3.2l10.8,1l4-6.8l7.8,6.3l0,0l2.4,3.2l-3.5,4l1.3,5l0,0   l-4.1,4.3l-3.6-1.8l-0.5,15.9l-1.9,3.4l-2.7-2.2l-2.1,2.1l-9.5-7.9L90,558l-2.8-1.5l-2.8-1.8l3.2-2.6l-5-0.8l-6-8L76.2,542.4z"/>
	<path id="무안군" class="st0" d="M73.6,551.5L73.6,551.5L73.6,551.5L73.6,551.5L73.6,551.5z M86.8,600.4l-0.4-3.4l-6.4-5.4   l-0.4-5l-3.3-18.5l-0.9,12.3l-3.2,0.9l-1.9-0.4l-2.4-1.7l-0.5-0.2l-0.2-0.9l2.2-1.5l-3.3-3.4l0.3-1.8l2-1.9l-0.4,2.1l4.3,0.5l2-3.2   l-3.2-0.3l7.4-5.8l-1.2-2.8l-3.7,1.6l-2.6-7.7l-3.5,6.7l-5.5-1.4l0-0.5l-0.2-1.5l-1.5-4.8l3-8.2l6.4,3.6l3.2-5l0.2,0.3l-2,10.3   l2.4-1.3l0.2,0.1l-1,3.8l7.5,0.8l-0.1,6.9l3.1-0.1l3.9-7.2L90,558l-1.8,6.2l9.5,7.9l0,8.8l-3.5,0l4.2,5.2l1.2,2.5l0.1,0.1l0.1,0   l-0.6,2.3l-5.5,13.1L86.8,600.4z"/>
	<path id="영암군" class="st0" d="M85.2,600.7l1.7-0.3l6.7,3.6l5.4-12.3l0.1-0.8l0.6-2.3l6.3-9.5l3.9,6.5l5.1,1.1l-0.6-9.9   l3.6,0.7l2.8,7.6l13.4,3.6l4.4,0.4l-6.6,6.1l-1.5,7.5l-3.3-0.6l-3.4,4.4l-8.1,0.4l-3.1,3.5l3.2,2.9l0,0l-1.5,3.4l-14.6,3.9l0.9-2.6   l-2.6,1.3l-1,0.6l-0.7,0.2l-3-3l-0.4-3.9l-4.6-0.8l0,0l1.4-3.5l-6.7,0.4l-1.2-0.9l-1.6,0.5l-2.5,2l-3.1-2.4l2.3-4.3l8-1.6   L85.2,600.7z"/>
	<path id="해남군" class="st0" d="M107,668.1l-2,6.9l-6-0.7l-1.8,2.9l-2.2,1.5l-1.4-0.3l-0.1-2.1l0.6-8.2l-6,2l-1.1-2.2l0-0.1   l2.8,0.1l-2-3.4l0.1-0.1l3.3-0.1l-1.3-3.6l3.9-0.9l-1.2-4.1l-4,1.9l-2.8-3.2l3-0.2l-2.2-6.3l1.5-2.6l-3.7-2.6l2.3-1.4l-5.8-4.2   l-3.7,4l-0.4-4.6l-9-0.9l0,0l-1.2-1.9l-3.1-2.6l1.9-5.4l-4.9-5.5l4.1-14.4l4.4,1.4l4.5,8.8l4.2-5.1l4.6,1.1l5.5,1.7L92,617l5.7,4.7   l0.8-1l1-0.2l14.6-3.9l4.6,1.5l-3,7.7l2.3,0.4l-2.7,4.6l1.9,5.8l-3.6,3.9l2.5,2.1l-0.4,8.4l6.6,2.5l0,0.1l-0.8,1.3l-5.5,2.5   l-0.8,0.6l0,0l-4.3,2l-0.2,0.8l0,0l-2.5,0.8l-0.7,5.2L107,668.1z"/>
	<path id="강진군" class="st0" d="M132.9,655l-4.3-3.4l2.3-13.5l-1.4,1.1l-1.1-13.7l-2.3,21.2l-3.6,2.1l2,2.3l-2.6,2.5l-6.6-2.5   l0.4-8.4l-2.5-2.1l3.6-3.9l-1.9-5.8l2.7-4.6l-2.3-0.4l3-7.7l-4.6-1.5l1.5-3.4l-3.2-2.9l3.1-3.5l8.1-0.4l3.4-4.4l3.3,0.6l2.8,0.8   l8,23.6l-3.9,1.2l4.7,11.6l-6,5.2l0.4,9.6l0,0.1L132.9,655z"/>
	<path id="장흥군" class="st0" d="M138.5,589.1l5.3-0.6l0.9,4.2l4.5,3.5l3.7-4.2l3,2.4l5.8-0.4l-2.1,2.5l-0.9,13.3l-5.6,4.6   l0.9,3.8l5.4,0.4l3.2,7.1l-12.2,0.7l6.6,4.2l-3.1,4.6l3.6,0.7l-0.3,2.1l-2-0.9l0,3.3l-4,1.5l2.6,9.3l-4.8-1.9l0.9,4.3l-10-0.1   l1.5,5.2l-4.6-4l-0.9-9.8l6-5.2l-4.7-11.6l3.9-1.2l-8-23.6l-2.8-0.8l1.5-7.5L138.5,589.1z"/>
	<polygon id="화순군" class="st0" points="172.2,538.2 180.9,535.3 182.4,548.2 179.4,572.2 168.5,578.7 168.3,588.5 161.6,594    155.8,594.4 152.8,592 149.1,596.2 144.7,592.6 143.8,588.5 138.5,589.1 134.1,588.7 135,587.9 135,587.8 140.9,584.4 139.6,578    143.3,569.7 139.9,567 143.1,556.4 143.1,556.4 146.6,554.3 150.7,557.2 157.5,549.7 158.1,547.7 167.3,550 165.2,540.4  "/>
	<path id="보성군" class="st0" d="M179.4,572.2l1.8,1.5l1.2-3.1l2.9,5l0.8,9.4l10.2-1.2l4,5.5l3.8,0l1.7,3.9l4.6,1.5l-9.2-1.1   l10.7,4.1l-0.2,0.3l-3.8,3.5l-7.3-6l-11.9,5.9l-3.2,5.9l-3.2,6.4l-0.1,0.8l-4.7,2.1l-4.3-2.4l-2.4,4.4l-1.8,1.7l-1.2,0.6l-4.4,3.5   l-0.9,1.1l-3.2-7.1l-5.4-0.4l-0.9-3.8l5.6-4.6l0.9-13.3l2.1-2.5l6.8-5.4l0.1-9.9L179.4,572.2z"/>
	<path id="고흥군" class="st0" d="M215.6,650.7l3.4,2.9l2.8-2.5l0,0l4.3,4.3l-0.8,3.7l-5.7,1.5l0.7-3l-3.9-1.8l2.9-0.6l-4.6-0.2   l0.6-1.9l0-2.2L215.6,650.7z M184.4,647.6l2.5,3.3l-3.5,7l-14.1-2.1l-0.5-4.9l0,0l2.5-2.5l3.5,2.7l3.4-1.8l5.4-1.4L184.4,647.6z    M215.2,640.1l3.2,1l-2.7,3.7l5.5,1.8l-0.4,2.6l-5,1l-0.7,0l-1.4-1.9l0.2-0.8l2-1.4l-3.2-2.3l0,0l0.2-0.4l1.1-1.8l0,0l0.6-0.7   L215.2,640.1z M186.3,606.6l2.4-5l11.9-5.9l7.2,8.6l-2.3,7.1l8.2,10l6.4,2.7l-4.1,0.7l4.8,1.5l1.2,4.3l-2.4,4.7l-3.9-3.6l-1.5,3.2   l-6.6-1.6l1.1,2.8l3.3,0.5l-4.3,1l5.4,1.4l-0.2,2l-0.6,2.7l0,0.2l-0.2,1l-2.1-1.4l-1.4,2.6l-3.2,0.1l1.7,2.5l-4.3-0.6l-1.3,2.3   l-1-1.9l-3.2,4l1.5,3.5l-7.7-6.3l2-3.1l-1.1,0.2l-10.3-5l-3,2l-0.2,0.1l-2.4-0.4l-3.7-1l-0.6-5.9l0.7-0.8l2.8-4l0.4-0.6l2.9,0.9   l0.2-5l0,0l2.1-2.6l5-1.7l0.6-4.1l6.2-5.8l0.2,9.4l8-8.2l-2.3-6.6l-8.1,3.3L186.3,606.6z"/>
	<polygon id="구례군" class="st0" points="206.4,521.5 213.1,512.1 217.5,511.7 231.1,520.5 237.2,540.3 234.6,550.3    228.8,553.9 225.7,552.4 209.6,539.4 205.4,538.6 204.1,533.6 208.7,531.1  "/>
	<polygon id="곡성군" class="st0" points="181.1,516.2 183.3,519.4 185.6,516.4 190.1,519.9 202.5,518.4 206.4,521.5    208.7,531.1 204.1,533.6 205.4,538.6 209.6,539.4 209.6,546.1 198.2,557.9 190.5,556 182.4,548.2 180.9,535.3 172.2,538.2    167.5,530 169.5,521.5 169.8,521.6 169.8,521.6  "/>
	<polygon id="담양군" class="st0" points="141.6,529.2 139.3,518.4 147.5,509.2 146.9,505.8 154.1,506.1 157.2,496.3    161.7,495.7 163.9,502 160.7,507 166.2,511.6 162.6,518.4 168.1,520.6 169.5,521.5 167.5,530 172.2,538.2 165.2,540.4 167.3,550    158.1,547.7 159.8,541.6 153,540.4 146.1,528.2  "/>
	<path id="광양시" class="st0" d="M247,579.5l-0.6,2l-3.1-1.9l-2.7,6.3l0.9-2.7l-4.4,0.4l-3-8.2l-2.7,6.2l-4-6.5l2.6-6.5   l-5.1-9.1l0.9-7.1l3.2,1.5l5.8-3.6l2.6-10l18.5,20.6l2.4,6.3l-4.1,7.4l-0.1,0.1l-3.4-2.2l0.5,3.3L247,579.5z"/>
	<polygon id="나주시" class="st0" points="112.7,550.4 122.6,550.8 127.5,557.5 125.6,559.4 133.5,560.3 143.1,556.4 139.9,567    143.3,569.7 139.6,578 140.9,584.4 135,587.8 135,587.9 134.1,588.7 120.7,585.1 117.9,577.5 114.3,576.9 115,586.8 109.9,585.7    105.9,579.2 99.6,588.7 99.5,588.6 98.4,586.1 94.2,580.9 97.8,580.9 97.8,572.1 99.9,570 102.6,572.2 104.5,568.8 104.9,552.9    108.5,554.7  "/>
	<path id="순천시" class="st0" d="M209.6,539.4l16.1,13l-0.9,7.1l5.1,9.1l-2.6,6.5l4,6.5l-0.7,2.7l1.6-2.7l0.9,3.6l0.1,0.9   l-2.5-1.8l1.6,2.2l-6.2,0.7l-0.8,6.1l-1.4,0l0.3-7.3l-5.6,1.2l0.6,6.6l-5.9,0.6l0.1-2.9l-3,3.5l-4.7-1.6l-1.7-3.9l-3.8,0l-4-5.5   l-10.2,1.2l-0.8-9.4l-2.9-5l-1.2,3.1l-1.8-1.5l3-24.1l8.2,7.8l7.7,2l11.4-11.9L209.6,539.4z"/>
	<path id="여수시" class="st0" d="M246.3,589.9l10,0.5l-3.6,13.2l3.1,5.2l-3.7,1.1l-4.4,2.5l-6.3-5.4l-1.9,7.6l-2.3-1.8l-1.5,1.9   l3.3,3.6l-2.8,0l2.3,3.4l0.7,1.4l0.7,3.6l-0.2,0.2l-7.9-3.9l-0.3,3.3l-3.6-4.9l3.4-6.4l-3.3,0.4l1-4.8l4.2-2.6l-2.8-2.1l-1.7-2.4   l1.8-0.7l-2-3.9l-4.5-0.5l0.9-2.4l1.1-9l6.2-0.7l0.9-0.4l0.5-0.9l1.3,0l0.8,0.5l-3,2.8l6.3,4.7l-1.6,1.9l1.7,0.9L246.3,589.9z    M251.5,639l4.6,3l2.7,6.8l-12.1-7.9l3.9-1.8L251.5,639z M241.8,638.5l-1.5-4.3l7.3,2.6L241.8,638.5z M252.7,621.1l1.3-2.6l1.2-0.9   l-1.1-1.8l-1.7-3.6l-0.2-1.8l6.1,2.8l0.3,2.5l-3.9-0.6l6.1,6.7l-0.6,11.5l-6.6-0.8l-5.1-4.5l0.8-3.2l0.5-1.1l0.2-0.7l0.2-0.2   L252.7,621.1z M249.1,584.6l3.7,1.2l0,2.8l-5.4,0.3l1.6-4.3L249.1,584.6z"/>
	<path id="목포시" class="st0" d="M79.5,592.4l7,4.6l0,0.2l0.4,3.1l-1.7,0.3l-2.1-0.4l-7.3,2l-0.4-0.1l-1.7-3.4L79.5,592.4z"/>
</g>
<g id="전라북도">
	<path id="부안군" class="st0" d="M89.2,474.5l0-0.6l0.1,0.1l0,0L89.2,474.5z M89.4,473.7l-1.2-5.2l9.8-8.2l4.4,0.9l8.1-17.9   l9.6,0.6l-1.1-2.6l8.2,2.6l2.5,7.1l0,0l3.7,5.4l1.9,0.3l0.1,4.7l-8.2,2.4l-4.9,3.2l-1.2,11.7l-5.7,0.5l-3.5-1.9l-0.9-0.3l-3.1-1.1   l0.4,0.5l0,0l-10,0.4l-2.5,0.5l-0.1,0.1l-6.4-3l-0.2-0.5L89.4,473.7z"/>
	<path id="고창군" class="st0" d="M110.5,478.5l1.1,0.5l3.9,3.3l0.9,4l-0.8-7l5.7-0.5l6.5,2l0.3,14.5l-4.2,2.4l0,1l1.7,4.6   l-4.1,2.6l1.1,3.6l-5.9,5.1l-2.5-1.2l-2.1,3.8l-0.8,0l0.1,1.2l-3.3-0.8l0,0l-4.4-0.8l0.1,4.4l-6.8-0.8l-6.9-12.5l2-3.3l-1.7-3   l-6.4-1.5l7.2-13.2l1.6,1.8l6.7-4.3l2.3-0.8l2.6,0.2l1.4,5.3l2.5-9.6L110.5,478.5z"/>
	<polygon id="순창군" class="st0" points="140.5,496.3 139.6,493.4 149,493.3 148.5,486.6 154.1,481.7 164.2,489 171.3,489.1    173.8,490 173.8,490 177.2,496.7 182.1,492.7 182.2,492.6 182.3,492.3 182.3,492.3 183.8,492.2 183.8,492.2 186.7,494.6    186.7,494.6 196.7,494.1 196.7,494.1 196.9,494.6 196.9,494.6 194.8,501.6 194.8,501.6 194,502.4 194,502.4 186.1,506.4    181.1,516.2 169.8,521.6 169.8,521.6 169.5,521.5 169.5,521.5 168.1,520.6 168.1,520.6 162.6,518.4 166.2,511.6 160.7,507    163.9,502 161.7,495.7 157.2,496.3 154.1,506.1 146.9,505.8 140.5,496.4  "/>
	<polygon id="장수군" class="st0" points="236.5,437.6 237.8,441.7 243.5,442.1 243.5,442.1 246.6,445.5 244.1,448.6    236.5,467.8 238.5,472.1 232,482.2 230,485.4 229.2,493.2 229.2,493.2 226.9,495.6 226.9,495.6 223,493.8 224.7,491.3 219.7,484.9    209.8,481.1 208.3,483.3 208.3,483.3 203.8,481.5 203.8,481.5 203.6,480.8 203.6,480.8 205.9,472.9 210.2,472.8 210.3,472.8    211.4,472.6 213,471.6 213.1,471.5 217.2,471.7 218.4,458.2 218.4,458.2 224.1,450.9 223.9,441.8 231.2,444.7  "/>
	<polygon id="무주군" class="st0" points="238.7,401.7 241.6,406.5 245.2,402.6 246.8,406.9 254.4,408.5 265.5,406.2    269.1,408.8 273.5,420.3 270.2,426.5 266.9,427 264.7,433.3 252.3,436.7 246.6,445.5 243.5,442.1 237.8,441.7 236.5,437.6    234.3,431.2 230.7,431.4 231.6,427.2 224.3,414.8 225.2,406.1 235.6,412.4 235.3,408.5 238.9,407.4 236.3,406.3  "/>
	<polygon id="진안군" class="st0" points="205.5,408.9 208.6,411.1 212.9,407.8 215.5,414.8 224.3,414.8 231.6,427.2    230.7,431.4 234.3,431.2 236.5,437.6 231.2,444.7 223.9,441.8 224.1,450.9 218.4,458.2 217.2,471.7 213.1,471.5 212,468.4    201.8,464.7 201.8,464.7 194.2,461.4 194.2,461.3 194.6,457.3 194.6,457.3 192.1,447.2 196.1,443.6 199.8,426.8 202.6,426    201.1,416 203.5,410.7  "/>
	<path id="완주군" class="st0" d="M158.4,433.2l7.8,6.5l-0.3,5.3l-8.3-3.5L158.4,433.2z M198.7,392l3.9,2.7l2.9,14.2l-2,1.8   l-2.3,5.3l1.4,10.1l-2.8,0.8l-3.7,16.8l-4,3.6l0,0l-1,0.5l-0.5,1l0,0l-1.7,1.5l1.2,4.1l0,0l-1,6.6l0,0l-4.8-3.2l-0.1,0l-4.1-4.3   l-5,2.9l-1.1,7.8l0,0.1l-0.4,1.1l0,0.1l0.1,3.7l0,0l-3,2.7l0,0l-1.6-0.4l0,0l-3.7-8.7l2.8-8l9.8-8.6l4.8,1.4l2.3-4.2l2.2-3.2   l-4.8-6l-3.6,1l-4-7.6l-12.5,0.6l0,0l0.3-4.3l6.6-0.9l5-21l1.1-3.5l8.4-2l5.4,2.8l0.4-4.7L198.7,392z"/>
	<path id="김제시" class="st0" d="M123.3,431.5l7.6-0.2l0-2.8l7.8-3.3l7.4,2.2l5.9-2.1l5.3,5.1l1.1,2.8l-0.9,8.3l8.3,3.5   l-1.9,5.5l4.4,4.2l-2.8,8l-4.2,1.7l-6.7-7.9l-13-6.7l-0.3,4.2l-5.9,2.7l-1.9-0.3l-3.7-5.5l-2.5-7l-8.2-2.6l-2.7-8.9l1.1-0.1   l3.8-0.5l1.9-0.3L123.3,431.5z"/>
	<polygon id="남원시" class="st0" points="208.3,483.3 209.8,481.1 219.7,484.9 224.7,491.3 223,493.8 226.9,495.6 229.2,493.2    230,485.4 232,482.2 237.6,485 240.8,492.7 238.7,497 243.5,499.1 235.3,511.6 236.7,516.8 231.1,520.5 217.5,511.7 213.1,512.1    206.4,521.5 202.5,518.4 190.1,519.9 185.6,516.4 183.3,519.4 181.1,516.2 186.1,506.4 194,502.4 194.8,501.6 196.9,494.6    196.7,494.1 196.6,492.8 196.6,492.8 201.1,491.2 202.4,491 202.8,490.6 200.5,486.3 200.5,486.3 200,482.5 203.7,481.6    203.7,481.6 203.8,481.5  "/>
	<polygon id="정읍시" class="st0" points="135.4,456.8 141.3,454.1 141.6,449.9 154.6,456.6 161.3,464.5 165.5,462.8    169.2,471.5 170.4,476.4 170.4,476.4 168,477.3 168,477.3 168.1,482.7 172.2,485.5 172,485.8 169.3,487.6 171.3,488.8 171.3,488.8    171.4,489.1 164.2,489 154.1,481.7 148.5,486.6 149,493.3 139.6,493.4 140.5,496.4 134.7,492.4 128.2,495.3 127.8,480.8    121.3,478.8 122.5,467.1 127.4,463.9 135.6,461.5  "/>
	<polygon id="익산시" class="st0" points="141.4,401 142.8,392.1 152.3,387.8 158.6,388.8 163.5,389.5 165.5,398.4 174.4,402.1    169.4,423.1 162.8,423.9 162.5,428.3 157.3,430.4 152,425.3 146.1,427.4 138.7,425.2 146.9,412.1 140.6,402.7  "/>
	<path id="군산시" class="st0" d="M97.4,421.4l-1.6-5.6l23.2-1.9l0.2-0.2l2.1-0.2l4.1,0.7l0.3-6.1l14.9-5.4l6.3,9.5l-8.2,13   l-7.8,3.3l0,2.8l-8,0.3l-1.4,0.2l-0.2,0l-3.5,0.5l-0.3,0l-1.1,0.1l-0.2-3l-5.4,0.4l-2.4,0l0.5-8.8L97.4,421.4z"/>
	<polygon id="전주시_덕진구" class="st0" points="185.1,443.4 177.5,439.1 174.5,440.9 170.8,436.9 167.4,439 166.1,439.7    158.4,433.2 157.3,430.4 162.6,428.3 175,427.7 179,435.3 182.6,434.2 187.3,440.2  "/>
	<polygon id="전주시_완산구" class="st0" points="167.4,439 170.8,436.9 174.5,440.9 177.5,439.1 185.1,443.4 182.8,447.6    178.1,446.2 168.3,454.8 163.9,450.5 165.8,445 166.1,439.7 167.4,439  "/>
	<polygon id="임실군" class="st0" points="173.9,469.1 173.8,465.3 174.1,464.1 175.2,456.3 175.2,456.3 180.2,453.4    184.3,457.7 189.1,460.9 190.1,454.3 188.9,450.2 188.9,450.1 190.6,448.7 191.1,447.7 191.1,447.7 192.1,447.2 194.6,457.3    194.2,461.3 201.8,464.7 212.1,468.4 213,471.6 211.5,472.6 211.4,472.6 210.3,472.8 205.9,472.9 203.6,480.8 203.8,481.5    203.7,481.6 200,482.5 200.5,486.3 202.8,490.6 202.8,490.6 202.4,491 202.4,491 201.1,491.2 201.1,491.2 196.6,492.8 196.7,494.1    186.7,494.6 183.8,492.2 182.3,492.3 182.2,492.6 182.1,492.7 177.2,496.7 173.8,490 171.3,489.1 171.2,488.8 169.3,487.6    172.2,485.5 168.1,482.7 167.9,477.3 170.4,476.4 169.3,471.5 170.9,471.8  "/>
</g>
<g id="충청남도">
	<path id="태안군" class="st0" d="M56,275.5l-0.2-2.9l8.5-4l-4.1,4.6l6.8,1.3l4.2-15.9l0.4,0.8l-0.2,1l0.1,3.2l-0.9,4.3l3.8,4.4   l-0.1,0.7l-2.8,3.1l-0.3,1.2l-0.2,0.2l1.7,3.1l-0.2,0.7l-4.3,2.3l1.4,3.2l1.9-2.7l3.5,0l2.8,4.1l-1.8,6l0,0l0,6.1l0,0l1,14.4   l-1.2,0.4l-1.3,0.9l-2,2.6l-2.9-1.2l0.2-9.2l-3.9-2l1.9-9.4l-10.7,8.8l-5.1-0.3l-1-4l9.6-2.2l-4.8-5.6l-5.7-0.2l1.3,3.4l-3.9,3.7   l-0.9-10.1l4.3-2.9l0.5-8.5l2.7,0.8l0,4.5l3.4,4.5l-2.6-7.7L56,275.5z M74.8,316.7l2.6-1l1.8,4.6l0.1,0.7l0.5,4.6l-0.4,1.7l5,11.8   l2.1,6.9l-0.9,3.1l-0.1,0.1l-0.8-0.1l-3.9-3.7l-0.7,2.1l-1.7-0.4l-1-0.6l0.2-4l-3.8-0.3l-2.2-20.2l0.2-2.3l1,0.5l0-1.6l1.4-1.7   L74.8,316.7z M72.8,320.4L72.8,320.4L72.8,320.4L72.8,320.4L72.8,320.4z"/>
	<polygon id="예산군" class="st0" points="114.7,290.8 120.5,286.6 129.6,294.9 137.6,289.2 141.5,298.1 154.1,306 145.4,324.7    138.8,323.1 136,329.5 130.4,328.9 129.5,328.5 125,326.7 129.4,319.2 126.1,307.2 111.3,310.4 110.7,316.7 105.9,315.2    106.4,308.1 112.1,293.4 114.6,294.6  "/>
	<path id="홍성군" class="st0" d="M89.7,318.8l-0.4-4.9l17.2-5.7l-0.5,7.1l4.7,1.5l0.7-6.3l14.8-3.2l3.3,12l-4.5,7.5l4.5,1.9   l-4.7,9.7l-8.2,1.6l-7.2-3.7l-0.5,0.3l-0.1,0.3l0,0l-1,0.3l-1.2-4.3l-4-0.3l-0.3-2.5l-0.4,2.8l-0.1,0l-1.1-0.2l-3.1-2.5l-2-1.1   l-0.2-0.3l-2.7,2.7l-2.5-5.5l0.2-0.4L89.7,318.8z"/>
	<polygon id="청양군" class="st0" points="116.6,339.8 124.8,338.2 129.5,328.5 130.4,328.9 136,329.5 138.8,323.1 145.4,324.7    144.6,337.3 147.4,341 154.8,339.3 161.6,349.2 155.1,359.9 148.7,363.1 141.9,361.7 137,355.2 138.8,351.7 131.5,357.1    123.2,353.4  "/>
	<path id="서천군" class="st0" d="M104.6,384.1l11,0.4l3.2-2.2l12.8,1.6l0,6.9l5.8,3.1l-0.4,3.1l0,0l4.3,4l-0.8,1.7l-14.9,5.4   L123,412l-0.1,0l-0.8-0.1l-7.3-0.9l0.7-4l-6.2-7.3l3.3-2.5l-4.1-0.5l-5.4-6.9l-7.9-1.7l-1.7,2.7l3.9-8.2L104.6,384.1z"/>
	<polygon id="부여군" class="st0" points="118.8,382.3 124.1,372 119.2,370 117.3,360.8 123.2,353.4 131.5,357.1 138.8,351.7    137,355.2 141.9,361.7 148.7,363.1 155.1,359.9 157,365.5 166.2,369 155.8,380.5 158.6,388.8 152.3,387.8 142.8,392.1 141.4,401    137.1,397 137.1,397 137.4,393.8 131.6,390.7 131.6,383.9  "/>
	<polygon id="금산군" class="st0" points="205,369.9 207,372.7 211.4,379.9 214.7,381.7 220.3,375.2 225.8,373.2 226.9,377.2    231.8,376.3 233.6,383.5 232.5,391.4 238.7,401.7 236.3,406.3 238.9,407.4 235.3,408.5 235.7,412.3 225.2,406.1 224.3,414.8    215.5,414.8 212.9,407.8 208.6,411.1 205.5,408.9 202.6,394.7 198.7,392 199.9,383.7 204,378.2  "/>
	<path id="당진시" class="st0" d="M106,281.5L106,281.5l-6.9,1.2l-2.4-7l-4.4-1.7l-1.1-19l0-0.1l4.5-9.6l16.1,9.8l11.8,2l7.2,3.9   l4.4,8.9l-0.1,0.1l3.7,4l-0.2,1l-0.1,0.7l-0.3,1.9l-0.1,0.7l-0.1,0.6l2.5,9.2l-3,1.2l-8,5.7l-9-8.3l-5.8,4.2L106,281.5z"/>
	<polygon id="계룡시" class="st0" points="193.5,374 189.1,376.2 185.9,371.4 183.4,373.1 182.8,360.1 184.2,357.9 190.8,361.2    189.1,366.9 194.8,371.1  "/>
	<polygon id="논산시" class="st0" points="166.2,369 171.4,359.1 175.8,364.7 182.8,360.1 183.4,373.1 185.9,371.4 189.1,376.2    193.5,374 199.9,383.7 198.7,392 189.7,394.8 189.3,399.4 183.9,396.7 175.5,398.6 174.4,402.1 165.5,398.4 163.5,389.5    158.6,388.8 155.8,380.5  "/>
	<path id="서산시" class="st0" d="M85.9,252.2l0.6,0.7l4.7,1.9l0,0.1l0.7,1.3l0.3,17.7l4.4,1.7l2.4,7l6.9-1.2l8.8,9.3l-0.1,3.8   l-2.5-1.2l-5.7,14.7L84.7,317l-5.6-2.3l-3.4-14.3l0-6.1l1.8-6l-2.8-4.1l-1.9-3.8l-0.2-0.6l0.9-2.2l2.3-0.9l2.7,5.2l0-7.2l3.9-1.9   l4.9-2l-3.2-1.3l1.5-4.6l-8-0.6l-2.9-3.3l7.1-1l-7.8-4.6l3.7-1.9L85.9,252.2z"/>
	<polygon id="아산시" class="st0" points="152.9,268.2 167.7,265.5 170.2,269.6 172.6,289.3 168.2,301.3 159.4,309.7    155.4,310.1 154.1,306 141.5,298.1 137.6,289.2 140.6,288 138.1,278.8 138.2,278.2 138.7,274.9 138.9,273.9 141.4,274.5 142,274.1    143.6,273.5 147.1,271.2 150.8,268.8  "/>
	<path id="보령시" class="st0" d="M87,353l2.5,3.1l-0.1,0.1l-3.2-1.1l-6.1-2.2l0.2-0.5l1.4-0.3l3-0.4l1.8,0L87,353z M96.2,363   l-0.9-2.9l1.4-0.2l9.2-2l-10.1-6.7l-3.6,0.4l2.1-6.4l4.6-2.3l-4.2,1.2l-1.8-12.8l2.7-2.2l2.2,1l2.9,2.4l0.4,0l1,0.2l0.7-0.4l4,0.3   l1.1,4.3l0.2,0.6l1-0.9l0.4-0.6l7.2,3.7l6.6,13.6l-5.9,7.3l1.9,9.2l5,2l-5.4,10.3l-3.2,2.2l-11-0.4l-6.4-2.4l0.2-7.3l2.3-4.1   L96.2,363z M95.3,359.8L95.3,359.8l0.8-0.1L95.3,359.8z"/>
	<polygon id="공주시" class="st0" points="154.1,306 155.4,310.1 159.4,309.7 168.4,312 172.2,309.3 177.1,315.5 184.3,322    179.5,332.8 183.2,343.6 189.7,348.8 193.7,347.6 190.8,361.2 184.2,357.9 182.8,360.1 175.8,364.7 171.4,359.1 166.2,369    157,365.5 155.1,359.9 161.6,349.2 154.8,339.3 147.4,341 144.6,337.3 145.4,324.7  "/>
	<polygon id="천안시_서북구" class="st0" points="167.7,265.5 173.5,260.6 183.8,263.6 184.8,266.9 192.9,269.6 194.5,272.7    194.9,272.9 186.4,279.7 179.9,280.1 172.6,289.3 170.2,269.6  "/>
	<polygon id="천안시_동남구" class="st0" points="194.9,272.9 197.5,274.8 197,278 208.8,287.5 211.1,294 209.1,296    203.3,293.4 198.3,299.1 194.2,304.4 189.2,303.6 183.1,298.5 177.4,298.4 174.3,301.5 178.6,304.4 177.1,315.5 172.2,309.3    168.4,312 159.4,309.7 168.2,301.3 172.6,289.3 179.9,280.1 186.4,279.7  "/>
</g>
<g id="충청북도">
	<polygon id="단양군" class="st0" points="321.2,234.7 331.9,230.8 337,239.5 346,235.7 351.3,241.3 361.9,241.6 365.6,245    363.2,248.9 360.1,247 355.3,249.9 353.5,255.6 339.4,266.8 337.3,274.8 340.5,279.2 337,284.9 330.4,286.5 314.4,275.7    313.6,266.1 317.4,261.8 312.1,251.5 311.2,247.2 317.6,242 317.7,237.6 321.9,240  "/>
	<polygon id="음성군" class="st0" points="237.3,231.8 245.7,234.1 249.1,238.1 244.2,243.8 240.1,258.7 244.6,258.3    248.3,262.5 252.9,262.6 255.6,266.4 257.4,265.8 257.3,274.7 245.6,274.8 243.6,279.4 238.5,280 235.7,282 235.9,278.2 231,278.9    231.9,275.7 222.6,266.9 214.7,264.1 214.6,254.4 219.6,247.6 223.5,246.9 228.3,249.6 231,244.3 234.4,245.3 233.1,242.3    238.1,240.4  "/>
	<polygon id="괴산군" class="st0" points="257.4,265.8 263,265.4 269.3,273.2 277.8,273.7 281.9,284.7 281.9,284.7 291.5,284.6    288.2,295.4 293,301.6 279.2,297 275.2,304.3 270.8,303.7 268.3,305.7 275.7,308.4 274.7,318.2 269,309.7 264.9,313.2 266.4,316.4    258.8,318.2 255.2,318 247.6,310.1 249.8,305.7 241.9,298.3 236.8,293.5 238.5,280 243.6,279.4 245.6,274.8 257.3,274.7  "/>
	<path id="진천군" class="st0" d="M194.5,272.7l1-5.9l13.3-5.7l-2.1-2.5l7.8-4.3l0,0l0.1,9.7l7.9,2.8l9.3,8.8l-0.8,3.3l-0.6,5.1   l-4.6,2l3.5,4.4l-8.1,0.1l-4.5,1.6l-1.7,3.2l-3.9-1.3l-2.3-6.4L197,278l0.5-3.2l-2.6-1.9L194.5,272.7z"/>
	<polygon id="증평군" class="st0" points="229.3,290.4 225.9,286 230.5,284 231,278.9 235.9,278.2 235.7,282 238.5,280    236.8,293.5 241.9,298.3 240.2,302.7 236,301.8 229.7,291.4  "/>
	<polygon id="영동군" class="st0" points="233.6,383.5 240.5,385.5 240.3,377.3 264.9,362.9 265.8,369.6 269.6,369.5    272.4,365.2 279.5,372.9 285.8,369.7 290.3,372.8 288.6,375.2 291.9,380.8 281.8,381.3 284.3,388 279.7,401.3 269.1,408.8    265.5,406.2 254.4,408.5 246.8,406.9 245.2,402.6 241.6,406.5 238.7,401.7 238.7,401.7 232.5,391.4  "/>
	<polygon id="옥천군" class="st0" points="228.1,350.7 231.8,347 235.4,349.4 237.8,343.6 242.1,342.8 250.3,351.5 269.2,354.3    270.6,356.6 264.9,362.9 240.3,377.3 240.5,385.5 233.6,383.5 231.8,376.3 226.9,377.2 225.8,373.2 220.3,375.2 221.3,359.4    224.4,351.9 228.1,350.7  "/>
	<polygon id="보은군" class="st0" points="255.2,318 258.8,318.2 272,329.8 268.6,336.4 269.2,354.3 250.3,351.5 242.1,342.8    237.8,343.6 235.4,349.4 231.8,347 228.1,350.7 223,346.4 231.1,335.8 229.4,329.5 235.4,326.2 239.4,317.7 242.5,319.5 250,318.2    252.2,320.9  "/>
	<polygon id="제천시" class="st0" points="274.6,230.1 274,220.6 280.2,215.8 286,217.5 288.9,226.3 297.3,223.7 299.4,219.1    304.3,222.4 309.7,216.8 317.3,223.2 323.3,220.7 325.4,221.9 321.1,228.8 316.9,230.6 321.2,234.7 321.9,240 317.7,237.6    317.6,242 311.2,247.2 312.1,251.5 317.4,261.8 313.6,266.1 314.4,275.7 313.8,279.9 310.6,279.7 311.3,285.1 309.4,284.8    309.4,284.8 296.3,281.9 288.5,278.6 293.1,269.4 289,263 294.8,263.5 294.5,243.9 289.5,237.8 284.3,240.5 279.8,231.5  "/>
	<polygon id="충주시" class="st0" points="251.8,222.6 257.4,233.6 267.8,230.3 271.1,232.5 272.3,229.8 274.6,230.1    279.8,231.5 284.3,240.5 289.5,237.8 294.5,243.9 294.8,263.5 289,263 293.1,269.4 288.5,278.6 296.3,281.9 300.8,282 295.8,287.6    291.5,284.6 281.9,284.7 277.8,273.7 269.3,273.2 263,265.4 257.4,265.8 255.6,266.4 252.9,262.6 248.3,262.5 244.6,258.3    240.1,258.7 244.2,243.8 249.1,238.1 245.7,234.1  "/>
	<polygon id="청주시_청원구" class="st0" points="229.7,291.4 236,301.8 236,301.8 219,311.6 218.9,311.4 210,301.4    198.3,299.1 198.3,299.1 203.3,293.4 209.1,296 211.1,294 211.1,294 215,295.3 216.7,292.1 216.7,292.1 221.2,290.5 221.2,290.5    229.3,290.4 229.7,291.4  "/>
	<polygon id="청주시_흥덕구" class="st0" points="198.3,299.1 210,301.4 218.9,311.4 205.7,323.6 200.8,324.5 196,320.8    192.9,312.4 197,305.8 194.2,304.4  "/>
	<polygon id="청주시_서원구" class="st0" points="219,311.6 221.2,320.2 217.2,322.8 219.3,327.2 214.5,326.5 214.3,332.2    218.7,337.8 215,342.2 208.8,341.1 208.7,341.3 208.5,339.8 208.4,338.9 209.1,337.8 208.1,335.6 208.1,335.6 209.7,329.7    205.7,323.6 218.9,311.4  "/>
	<polygon id="청주시_상당구" class="st0" points="218.7,337.8 214.3,332.2 214.5,326.5 219.3,327.2 217.2,322.8 221.2,320.2    219,311.6 236,301.8 240.2,302.7 241.9,298.3 249.8,305.7 247.6,310.1 255.2,318 252.2,320.9 250,318.2 242.5,319.5 242.5,319.5    239.4,317.7 235.4,326.2 229.4,329.5 231.1,335.8 223,346.4 221.4,348.5 220.2,343.7 218.7,337.8  "/>
</g>
<g id="강원도">
	<polygon id="양양군" class="st0" points="342.9,115.8 340.9,107 346.6,96.9 343.2,90.6 335.7,91.4 333,84.1 340.4,80.4    358.1,73.7 383.4,111.5 380.6,112.1 375.8,112.7 375.7,113.1 375.7,113.1 372.3,113.9 372.3,113.8 362.9,115.2 356.1,120.5    354.3,120 350.2,116  "/>
	<path id="고성군" class="st0" d="M315.8,46.1l5.3,1.2l1.1,10.3l4.9,0l1.2,4.7l6.9-2.8l2.2,7.7l4.8,2.5l12.7-6.6l-16.1-31.5   l-5.8-19.4l-5.1-5.7l-1.5-3l-5.1,4.8l-5.5,32.1L315.8,46.1z"/>
	<polygon id="인제군" class="st0" points="282.5,108.7 281.1,101.2 286.7,97.2 290.6,97.1 290.6,92.1 297.1,93.6 297,88.3    293.9,84.4 296,82.4 293.6,75.6 298.2,61.7 302.7,57.3 303.9,50 306.7,42.8 315.8,40.3 315.8,46.1 321.1,47.3 322.2,57.6    327.2,57.6 328.4,62.3 335.3,59.5 337.5,67.2 334.9,71.5 340.4,80.4 333,84.1 335.7,91.4 343.2,90.6 346.6,96.9 340.9,107    342.9,115.8 338.3,120.2 334.6,117 333.1,119.9 326.3,126.4 319.9,119.8 309.1,128.6 303.1,115.8 294.6,115.4 286.9,108.2  "/>
	<path id="양구군" class="st0" d="M284.8,54.1l8.6-0.1l3.3-5.9l7.1,1.8l-1.1,7.3l-4.5,4.5l-4.6,13.9l2.3,6.8l-2.1,2l3.1,3.8   l0.1,5.3l-6.5-1.6l0,5.1l-3.8,0.1l-2.1-0.7l-2.4,2.7l-4.7-5.8l-2.6,3.9l-4-5.7l-3.1-23l-3.3-1.7L266,55l4.2-4.4l13,5.8L284.8,54.1z   "/>
	<path id="화천군" class="st0" d="M260.4,54.5l2.8,0.2l2.9,0.6l-1.4,11.5l3.3,1.7l3.1,23l-5.9-0.2l-0.2,0.3l0.6,5l-3.8,2.8   l-4.8,1l-5.2-7.1l-2.9,2.3l-2.9-2.1l-5.7,2.3l-0.3-4.8l-9.7-4.8l0.6,7.1l-4.8,6.1l-8.5-0.9l-3.1-7l-1.9-10l0,0l8-2.8l1.6-10.3   l11.1-13l13.1,5.4l3.5-4.8l9.7-1.5L260.4,54.5z"/>
	<path id="철원군" class="st0" d="M184.6,49.9l-2.6,1l-5.7-0.6l-4.1,6.5l2.8,6.2l4.6-0.7l2.1,8.2l5.4,7.1l7.3-6.6l-0.9,9.2   l7.5,5.4l5.2-4.5l3.3,2.4l3.1-1.9l8-2.8l1.6-10.3l11.1-13l13.1,5.4l3.5-4.8l9.7-1.5l-6.3-5.6l-5.6,2.1L232,46.9l-11.2,5.9   l-14.2-5.9l-3.5,5.2l-6.7,0.4l-0.1-3.4l-7.3-1.5L184.6,49.9L184.6,49.9z"/>
	<polygon id="정선군" class="st0" points="358.2,211.5 350.8,192.8 346.7,190.2 347.6,184.1 353.8,183.2 353.9,176.7    356.4,179.1 358.3,166.2 361.3,165.6 362.6,170.8 368,166 373.1,172.4 375.3,169.4 382,170.6 384.9,176.2 389.3,174.2 393.5,162.1    396.3,168.3 404.7,171.2 403.5,174.1 403.4,174.2 406.9,178.8 403,184.8 396.2,186.3 389.3,201.7 393.4,204.1 390.9,207.3    397.3,220.9 396.5,231.8 378.1,221.9 364.1,226.7 361.2,221 356.1,220.9 355.7,213.3  "/>
	<polygon id="평창군" class="st0" points="355.5,126.8 357.7,128.8 358.1,134.9 370,134.5 375.7,139.1 378.5,149.8 374.6,152.6    375.1,159.7 368.6,162.3 368,166 362.6,170.8 361.3,165.6 358.3,166.2 356.4,179.1 353.9,176.7 353.8,183.2 347.6,184.1    346.7,190.2 350.8,192.8 358.2,211.5 358.2,211.5 355.7,213.4 351.5,210.6 348.4,210.4 336.7,201.9 334.8,209.4 330.4,210.1    324.2,205.4 324.3,196.5 316.7,191.8 313.9,180.7 321.1,171.5 318.6,158.6 315,157.6 322.2,145.6 335,147.9 340.2,141.2    348.7,140.9 350.7,130.2  "/>
	<polygon id="영월군" class="st0" points="316.7,191.8 324.3,196.5 324.2,205.4 330.4,210.1 334.8,209.4 336.7,201.9    336.7,201.9 348.3,210.4 348.4,210.4 351.5,210.6 351.5,210.6 355.7,213.3 355.7,213.3 356.1,220.9 361.2,221 364.1,226.7    378.1,221.9 378.1,221.9 396.5,231.8 392.5,237.8 395,238.9 393.7,243.6 398,244.1 396.3,247.8 394,246.5 393.3,248 381.6,240.5    378.4,250.7 372.8,248.9 365.6,245 365.6,245 361.9,241.6 351.3,241.3 346,235.7 337,239.5 331.9,230.8 321.2,234.7 316.9,230.6    321.1,228.8 325.4,221.9 323.3,220.7 317.3,223.2 309.7,216.8 308.3,209.3 301.5,213.4 298.1,213.2 297.2,209.1 298.4,205.1    304.4,205.5 306.8,202.5 306.7,194.3 313.1,195  "/>
	<polygon id="횡성군" class="st0" points="258.7,187.4 258.6,182.1 253.6,177.3 264.5,169.6 264.5,169.6 279.8,156.1 285.9,160    297.6,153.4 298.1,149.7 315,157.6 318.6,158.6 321.1,171.5 313.9,180.7 316.7,191.8 313.1,195 306.7,194.3 306.8,202.5    304.4,205.5 298.4,205.1 297.2,209.1 290.2,207.6 287.9,203.9 295.7,192.3 294.1,189.1 277.2,184.9 274.7,176.7 268.2,182.9    267,193.6 261.2,186.2  "/>
	<polygon id="홍천군" class="st0" points="282.5,108.7 286.9,108.2 294.6,115.4 303.1,115.8 309.1,128.6 319.9,119.8    326.3,126.4 333.1,119.9 334.6,117 338.3,120.2 342.9,115.8 350.2,116 354.3,120 356.1,120.5 355.5,126.8 350.7,130.2 348.7,140.9    340.2,141.2 335,147.9 322.2,145.6 315,157.6 298.1,149.7 297.6,153.4 285.9,160 279.8,156.1 264.5,169.6 258.2,164.7 247.1,164.3    234.3,154.2 228.6,157.8 225.6,154.8 228.6,142.1 232.8,143.3 234.8,150.4 238.1,146.8 239.5,149.8 251.4,140 262.5,140    265.6,135.8 262.2,131.8 262.2,131.8 260.1,125.6 267.3,125 269.7,121 274.9,126.7  "/>
	<path id="삼척시" class="st0" d="M431.5,182.8l1.5,6.4l7.5,5.3l1.5,8.9l11.3,13.5l-1.9,6.6l3.1,7.3l-8.1,3.5l-9,8.1l1.7,5.5   l-6.6-0.4l-11.4-9l0,0l-1-9l-11.1-6.8l-1.4-6l3.4-9.8l-2.7-5.3l-3.6,0.2l-7.4,18.9l0,0l-6.4-13.6l2.4-3.1l-4.1-2.4l6.9-15.4   l6.8-1.5l5.9,3l6.3-5.1l10.3-0.8l0,0l2.7-2.1L431.5,182.8z"/>
	<path id="속초시" class="st0" d="M355.1,62.8l3,10.9l-17.7,6.7l-5.5-8.9l2.6-4.3l4.8,2.5L355.1,62.8z"/>
	<polygon id="태백시" class="st0" points="408.3,201.8 410.9,207.1 407.5,216.9 409,222.9 420.1,229.7 421.1,238.7 416.7,244.2    404.1,242.5 402.3,240 399.3,240.4 398,244.1 393.7,243.6 395,238.9 392.5,237.8 396.5,231.8 397.3,220.9 404.7,201.9  "/>
	<path id="동해시" class="st0" d="M426.2,176.6l2,3.2l-2.7,2.1l0,0l-10.3,0.8l-6.3,5.1l-5.9-3l3.9-6l-3.5-4.6l0.1-0.1l1.2-3   l9.1-2.2l1.3-7.9l0.1,0l1.4-0.6l0-0.1l5.5,2.9l0,7l4.6,6.1L426.2,176.6z"/>
	<path id="강릉시" class="st0" d="M375.1,159.7l-0.5-7.1l3.9-2.9l-2.8-10.7l-5.7-4.6l-11.9,0.5l-0.4-6.2l-2.2-1.9l0.6-6.4   l6.7-5.2l9.4-1.4l0,0.1l3.4-0.8l0-0.1l0.1-0.3l4.8-0.6l2.8-0.6l31.1,37.4l-0.8,4l3,7.5l0,0.1l-1.4,0.6l-0.1,0l-1.3,7.9l-9.1,2.2   l-8.5-2.8l-2.7-6.3l-4.2,12.2l-4.4,2l-2.9-5.6l-6.6-1.2l-2.2,3L368,166l0.6-3.8L375.1,159.7z"/>
	<polygon id="원주시" class="st0" points="258.7,187.4 261.2,186.2 267,193.6 268.2,182.9 274.7,176.7 277.2,184.9 294.1,189.1    295.7,192.3 287.9,203.9 290.2,207.6 297.2,209.1 298.1,213.2 301.5,213.4 308.3,209.3 309.7,216.8 304.3,222.4 299.4,219.1    297.3,223.7 288.9,226.3 286,217.5 280.2,215.8 274,220.6 274.6,230.1 272.3,229.8 271.1,232.5 267.8,230.3 257.4,233.6    251.9,222.6 252,222.4 252.2,217.9 253.6,198.6  "/>
	<polygon id="춘천시" class="st0" points="282.5,108.7 274.9,126.7 269.7,121 267.3,125 260.1,125.6 262.2,131.8 262.2,131.8    265.6,135.8 262.5,140 251.4,140 239.5,149.8 238.1,146.8 234.8,150.4 232.8,143.3 228.6,142.1 222.1,143.4 226.8,137.2    223.8,132.1 224.4,125.8 234.3,119 235.6,110.9 233.6,106.4 226.8,104.7 226.2,99.6 230.9,93.4 230.3,86.4 240,91.1 240.3,95.9    246,93.7 248.8,95.8 251.7,93.4 256.9,100.5 261.7,99.5 265.5,96.6 264.9,91.7 265.1,91.4 271,91.6 275,97.4 277.5,93.5    282.3,99.2 284.7,96.5 286.7,97.2 281.1,101.2  "/>
</g>
<g id="경기도">
	<polygon id="양평군" class="st0" points="197.1,174.8 205.2,154.8 205.2,154.8 212.8,151.6 218.1,165.9 228.7,164.8    228.6,157.8 228.6,157.8 234.3,154.2 247.1,164.3 258.2,164.7 264.5,169.6 253.6,177.3 258.6,182.1 258.7,187.4 258.7,187.4    253.6,198.6 253.6,198.6 246.4,197.7 247.1,191.9 226.6,192 222.1,187.2 217.9,190 211.6,187.3 208.8,190.1 204.7,184.6    207.1,178.3 204.3,173.1  "/>
	<polygon id="가평군" class="st0" points="214.5,91.6 217.7,98.6 226.1,99.6 226.8,104.7 233.6,106.4 235.6,110.9 234.3,119    224.4,125.8 223.8,132.1 226.8,137.2 222.1,143.4 228.6,142.1 225.6,154.8 228.6,157.8 228.7,164.8 218.1,165.9 212.8,151.6    205.2,154.8 206.4,150.1 200.6,138.3 192.3,134.1 192.3,134.1 195.4,119.1 199.2,119.8 200.2,111.3 206.9,108.5 206.9,102.4  "/>
	<path id="연천군" class="st0" d="M134.2,100.4l7.3-4.3l0.1-10.6l6.1-5.9l7.6,0.1l-2.1-3.9l4.1-10.2l15-8.8l2.8,6.2l4.6-0.7   l2.1,8.2l-0.8,2.2l1.9,16.4l-5.1,1.5l-0.8-2.4l-3.3,2l-0.1,3.2l2.6,1.7l1.2,5.8l-3.1,2.1l-2.4-1.7l-1.2,2.8l-5.2-1.2l-5,7.9   l-4.6-2.2l4.8-5.8l-2.7-4.9l-6.4,4.6l-5.3-2.2l-1.1,4.5l-4.9-3.1l-1.8,3.4L134.2,100.4z"/>
	<polygon id="여주시" class="st0" points="208.8,190.1 211.6,187.3 217.9,190 222.1,187.2 226.6,192 247.1,191.9 246.4,197.7    253.6,198.6 252.2,217.9 252.2,217.9 252,222.4 252,222.5 251.9,222.5 251.8,222.6 245.7,234.1 237.3,231.8 237.8,230.8    233.2,226.4 230.1,229.4 223.8,226.5 223.8,226.5 224.9,224.2 224.9,224.2 224.4,218.5 224.4,218.5 225.8,217.4 226.9,207.4    217.5,199.5 214,200 214.3,195.8 208.8,190.2  "/>
	<polygon id="포천시" class="st0" points="174.5,135.1 174.5,135.1 172.3,133.9 172.7,121.4 177.4,118.9 177.4,114.6 170.6,104    171.7,101.2 174.2,102.9 177.3,100.8 176.1,95 173.5,93.3 173.7,90.1 177,88.1 177.8,90.5 182.9,89 181,72.7 181.7,70.5    187.1,77.6 194.4,71 193.5,80.2 201,85.6 206.2,81.1 209.5,83.5 212.6,81.6 214.5,91.6 206.9,102.4 206.9,108.5 200.2,111.3    199.2,119.8 195.4,119.1 192.3,134.1 187.1,138.2 185.4,135.7 185.4,135.7 177.3,137.8  "/>
	<polygon id="양주시" class="st0" points="150.3,138.8 151.4,132.8 147.2,132.2 147,126.8 151.3,124.3 155.9,108.5 160.5,110.7    166.7,120 172.7,121.4 172.7,121.4 172.3,133.9 172.2,133.9 159.4,136.6 161,146.2 160.1,148.9 158.1,149.6 153.5,147.5 147.6,151     "/>
	<polygon id="광주시" class="st0" points="176,202.8 180.5,192.6 183,189 181.2,181.7 189.4,181.5 194.5,175.6 197.1,174.8    204.3,173.1 207.1,178.3 204.7,184.6 208.8,190.2 214.3,195.8 214,200 204.1,206.6 201,213.7 193.6,213.8 194.1,202.1 188.5,199.7    184,204.7 182.7,201.7 176.5,203.3  "/>
	<path id="화성시" class="st0" d="M132.9,228L132.9,228L132.9,228L132.9,228z M132.5,213.9l2.6,0l-0.7-2.7l0.4-0.2l0.7,0.1   l4.5,4.6l0.3-1.8l0.9-0.4l2.9,2.1l-3.1-2.5l5.5-2.9l3.3,2l5.4,7.8l8.4-1.4l3.7-0.2l2.7,3.8l7.7-0.6l1.2,6.3l-4.1,5.2l0,0.1   l-0.6,0.2l-2.5,0.1l-4.8-8.7l-4.7-0.3l-4,3.9l4.5,4.8l0,0l0.6,1.3l-4.8,1.7l-0.2,8.7l-14.1,0.4l-4.4,7.7l0,0l-11.2-2l-0.4-4.1   l0.8-1.1l-0.3-8.6l7.1-3.9l-4.4-1.4l2.8-1.7l-0.4-1.5l-0.7-0.7l0,0l0.8-3l-1.6,3.5l-5.1,0.9l-8,8.2l-1.2-3.6l3-2.1l-6-0.6l0.1-0.3   l2.5-5.1l-2.7,0.4l6.4-4.2l-4.1,0.6l0.1-1.3l-0.6-4.3l0-0.1l3.1-2.6l1.8,0.4l2.2,0.7l2.6,0.2l2.1,0.1l2.1,0.9L132.5,213.9z"/>
	<path id="김포시" class="st0" d="M99.3,133.9l0.6-2l8.8,4.6l8.7-2.4l1.2,12.1l0.2,4.2l7,4.1l3.3,2.8l5.3,3.9l-1.1,3.7l-8.5-1.7   l-9-7.5l-7.7,7.2l-4-1.1l-0.9-4l-1.7-2.9l-0.1-0.1l-0.9-5.1l0.3-4.1l-1.2-2.6l0.1-0.7l0.2-0.8l0.6-1.6l0.1-1l-1.4-2.6L99.3,133.9z"/>
	<polygon id="안성시" class="st0" points="174.1,241.8 181.8,242.9 190,236.8 191.6,231.6 197.1,239.5 199.5,237.3 210.6,242.2    212.1,233.1 223.1,240 219.6,247.6 214.6,254.4 206.8,258.6 208.8,261.1 195.5,266.8 194.5,272.7 192.9,269.6 184.8,266.9    183.8,263.6 173.5,260.6 177.9,256.3 177.6,251.6 171.7,250.5  "/>
	<polygon id="이천시" class="st0" points="214,200 217.5,199.5 226.9,207.4 227,207.5 225.8,217.4 225.8,217.4 224.4,218.5    224.9,224.2 223.8,226.5 230.1,229.4 233.2,226.4 237.8,230.8 237.8,230.8 237.3,231.8 238.1,240.4 233.1,242.3 234.4,245.3    231,244.3 228.3,249.6 223.5,246.9 219.6,247.6 223.1,240 212.1,233.1 210,227.4 200,221.6 201,213.7 204.1,206.6  "/>
	<path id="파주시" class="st0" d="M118.3,134.9l0.1-29.1l15.7-5.4l4.4,4.5l1.8-3.4l4.9,3.1l1.1-4.5l5.3,2.2l6.4-4.6l2.7,4.9   l-4.8,5.8l-4.5,15.7l-4.3,2.6l0.2,5.3l4.3,0.6l-1.1,6l-5.1,4l-6.4-0.7l-4.7-1.5l-3.2,5.2l-12.4,0.5L118.3,134.9z"/>
	<polygon id="용인시_수지구" class="st0" points="162.3,197.7 172.5,203.7 176,202.8 176.5,203.3 175.9,205.3 171.1,205.6    169.9,209.3 163.7,205.7 163.7,205.5 161,201  "/>
	<polygon id="용인시_기흥구" class="st0" points="167,218.4 169.9,209.3 171.1,205.6 175.9,205.3 180.8,211.9 177.5,221.6    169.8,222.1  "/>
	<polygon id="하남시" class="st0" points="180.2,165.1 184.1,163.9 194.5,175.6 189.4,181.5 181.2,181.7 180.8,182.2    176.8,181.9 177,175.1 181.8,170.7 179.9,165.4  "/>
	<polygon id="의왕시" class="st0" points="164.1,190.9 164.2,192.8 162.3,197.7 161,201 155.2,204 153.8,208.6 150.3,208.5    150,207.8 154,199.3 156.6,193.2  "/>
	<polygon id="군포시" class="st0" points="150,207.8 143,205.6 145.8,199.6 148.6,196.8 148.7,196.9 151.5,196.6 154,199.3  "/>
	<path id="시흥시" class="st0" d="M127.5,192.6l0.5-1.2l0-0.2l3.1-9.3l6,2l2.5,7.5l3.7,1.5l0.5,3.5l0.1,0.3l-10.7,3.4l-1.4,2.9   l-3-0.6l-4.5,4l-0.8,1l-0.7-0.1l-5.1-3.2l-0.1-0.2l3.9-3.2l0-0.5l3.7-4.8l1.1-1.3l0.1-0.2L127.5,192.6z"/>
	<polygon id="오산시" class="st0" points="162.5,233.3 158,228.4 162,224.5 166.7,224.8 171.5,233.5 168.5,236.3 163.1,234.6     "/>
	<polygon id="남양주시" class="st0" points="185.4,135.7 187.1,138.2 192.3,134.1 200.6,138.3 206.4,150.1 205.2,154.8    197.1,174.8 194.5,175.6 184.1,163.9 180.2,165.1 177.2,155.2 172.8,155.5 169.1,147.1 177.3,137.8  "/>
	<polygon id="과천시" class="st0" points="157.4,184.2 163.2,183.3 164.7,188.6 164.1,190.9 156.6,193.2 154.3,186.9  "/>
	<polygon id="고양시_일산서구" class="st0" points="118.5,146.1 130.9,145.6 130.7,150.8 125.7,154.4 118.7,150.3  "/>
	<polygon id="고양시_일산동구" class="st0" points="125.7,154.4 130.7,150.8 130.9,145.6 134.1,140.5 138.8,142 140.9,148.2    133,157.9 129.1,157.2  "/>
	<polygon id="고양시_덕양구" class="st0" points="150.3,138.8 147.6,151 153.5,147.5 158.1,149.6 157,156.4 157.3,156.5    155.9,157.1 153.8,157.4 152.5,152.8 147.2,154.3 146.8,162.7 144.3,163.4 140.7,166.4 134.4,161.1 129.1,157.2 133,157.9    140.9,148.2 138.8,142 145.2,142.7  "/>
	<polygon id="안산시_상록구" class="st0" points="144,196.8 145.8,199.6 143,205.6 150,207.8 150.3,208.5 149.6,212.2    146.3,210.3 140.7,213.1 139.8,213.8 136.4,210.2 135.8,209.1 136.8,208.2 139,207.8 139,199 139.1,198.3  "/>
	<path id="평택시" class="st0" d="M137.7,266.4l-0.8-8.7l-6.1-3.1l8.8-1.5l4.4-7.7l14.1-0.4l0.2-8.7l4.8-1.7l5.5,1.7l2.9-2.8   l2.5-0.1l0.1,8.5l-2.3,8.6l5.9,1.1l0.3,4.8l-4.3,4.3l-5.8,4.9l-14.8,2.6l0,0l-1.9,0.5l-0.2,0.1l-3.8,2.4l-0.5-2.2l-3.7,0.7   l-2.9,0.4L137.7,266.4z"/>
	<polygon id="광명시" class="st0" points="138.1,181.1 143.2,179.9 146.2,187.2 143.5,192.9 143.4,192.9 139.7,191.4    137.2,183.9  "/>
	<path id="부천시" class="st0" d="M137.3,176.2l-1.6,5.3l2.3-0.4l-0.9,2.8l-6-2l-1.3,0l-3.2-2.4l2.3-5.8l0.8-4.7l6.9,2.2   L137.3,176.2z"/>
	<polygon id="안양시_동안구" class="st0" points="154.3,186.9 156.6,193.2 154,199.3 151.5,196.6 149.7,192 152.4,187.3  "/>
	<polygon id="안양시_만안구" class="st0" points="149.9,185.4 152.4,187.3 152.4,187.3 149.7,192 151.5,196.6 148.7,196.9    145.8,199.6 144,196.8 143.9,196.5 143.9,196.5 143.5,192.9 146.2,187.2  "/>
	<polygon id="의정부시" class="st0" points="172.2,133.9 174.5,135.1 177.3,137.8 169.1,147.1 165.5,148.7 161,146.2    159.4,136.6  "/>
	<polygon id="성남시_분당구" class="st0" points="164.2,192.8 173.7,191 180.5,192.6 176,202.8 172.5,203.7 162.3,197.7  "/>
	<polygon id="성남시_중원구" class="st0" points="181.2,181.7 183,189 180.5,192.6 173.7,191 180.8,182.2  "/>
	<polygon id="성남시_수정구" class="st0" points="174.3,183 176.8,181.9 180.8,182.2 173.7,191 164.2,192.8 164.1,190.9    164.7,188.6 170.7,184.6  "/>
	<polygon id="수원시_영통구" class="st0" points="169.9,209.3 167,218.4 163.4,218.6 163.3,215.8 163,210 163.7,205.7  "/>
	<polygon id="수원시_팔달구" class="st0" points="163,210 163.3,215.8 156,211.1  "/>
	<polygon id="수원시_권선구" class="st0" points="163.4,218.6 155,220 149.6,212.2 150.3,208.5 153.8,208.6 156,211.1    163.3,215.8  "/>
	<polygon id="수원시_장안구" class="st0" points="161,201 163.7,205.5 163.7,205.5 163.7,205.7 163,210 156,211.1    153.8,208.6 153.8,208.6 155.2,204  "/>
	<polygon id="동두천시" class="st0" points="172.7,121.4 166.7,120 160.5,110.7 165.4,102.8 170.6,104 177.4,114.6 177.4,118.9     "/>
	<polygon id="용인시_처인구" class="st0" points="174.1,241.8 174,233.4 174.7,233.1 178.7,227.9 177.5,221.6 180.8,211.9    175.9,205.3 176.5,203.3 182.7,201.7 184,204.7 188.5,199.7 194.1,202.1 193.6,213.8 201,213.7 200,221.6 210,227.4 212.1,233.1    210.6,242.2 199.5,237.3 197.1,239.5 191.6,231.6 190,236.8 181.8,242.9  "/>
	<polygon id="구리시" class="st0" points="172.8,155.5 177.2,155.2 180.2,165.1 179.9,165.4 173.3,168.9 171.5,166.2    172.1,158.9  "/>
	<polygon id="안산시_단원구_00000145048440221413544630000011872595071915344797_" class="st0" points="124.8,206    133.6,209.3 135.8,209.1 136.8,208.2 139,207.8 139,199 139.1,198.3 133.2,200.2 131.8,203.1 128.8,202.5  "/>
</g>
<g id="세종특별자치시">
	<polygon id="세종특별자치시_00000020366141440786130000000003127030897387599272_" class="st0" points="193.7,347.6    189.7,348.8 183.2,343.6 179.5,332.8 184.3,322 177.1,315.5 178.6,304.4 174.3,301.5 177.4,298.4 183.1,298.5 189.2,303.6    194.2,304.4 197,305.8 192.9,312.4 196,320.8 200.8,324.5 205.7,323.6 209.7,329.7 208.1,335.6 203.6,335.7 203.5,339.6    203.5,339.6 203.1,341.4 203,342 203,342 202.7,342.4 202.7,342.4 201.8,342.7 201.1,345 201.1,345 200.8,345.3 200.8,345.3    200.7,345.5 200.7,345.5 200.2,345.7 200.2,345.7 198.1,346.6 198.1,346.6 194.4,347.4 194.3,347.4  "/>
</g>
<g id="울산광역시">
	<path id="울주군" class="st0" d="M457.9,493.5l-0.5,0.4l0.2,1.3l1.5,4.4l0,0l-2,7.9l2.6,2.8l-7.3,4.7l-5.1-8.8l-8.2,0l2.2-3.2   l-2.8-4.6l-7-1.2L420.1,484l-7.8,0.8l0.3-2.6l-3.3-2.3l6.1-3.8l-2.2-5.6l5.6-4.8l4.4,1.1l-0.6-7.8l8.7-5.1l14.2,3.5l-0.1,6.3   l5.3,2.6l-0.6,7.9l0.6,2.7l-5.4-2.1l1.7,5.2l-3.7,3.3L457.9,493.5z"/>
	<path id="북구_00000009551120665523072970000015517345454175827332_" class="st0" d="M450.5,466.1l7.2-5.7l12.3,4.2l0.5,12.4   l-4.9,2.1l-2.1,5.4l-1.6-0.9l-4.7-2.8l-0.1-7.1l-7.4,0.4L450.5,466.1z"/>
	<path id="동구_00000153670336490173914480000007280234862974620039_" class="st0" d="M470.6,477l-0.7,12.5l-4.8,3.1l-0.3-1.1   l0-1.2l0.1-0.3l-1.1-2.6l-0.5-2.2l0.3-0.9l2.1-5.4L470.6,477z"/>
	<path id="남구_00000116235787361681521350000007395983019771300517_" class="st0" d="M446.8,479.7l10.6,1l3.9,3.2l-2.6,0l3.5,1.9   l0.5,1.8l-4.3-0.4l4.4,3l-4.1,4.4l-0.7-1.1L443.1,483L446.8,479.7z"/>
	<polygon id="중구_00000032630116403187728130000008423414302185526412_" class="st0" points="449.9,474 457.2,473.6 457.4,480.7    446.8,479.7 445.1,474.5 450.5,476.6  "/>
</g>
<g id="대전광역시">
	<polygon id="대덕구" class="st0" points="218.7,337.8 220.2,343.7 215.6,349.9 216.7,357.6 212.4,356.3 210.4,359.1 209,357.8    207.7,354.4 211.1,347.9 207.2,343.4 208.8,341.1 215,342.2  "/>
	<polygon id="유성구" class="st0" points="207.7,354.4 202.3,357.2 194.8,371.1 189.1,366.9 190.8,361.2 193.7,347.6    194.3,347.4 198.1,346.6 200.2,345.7 200.7,345.5 200.8,345.3 201.1,345.1 201.8,342.7 201.8,342.7 202.7,342.4 202.9,342    203,341.4 203.1,341.4 203.5,339.6 203.6,335.7 208.1,335.6 209.1,337.6 209.1,337.8 208.8,338.9 208.7,339.8 208.8,341.1    207.2,343.4 211.1,347.9 207.7,354.4  "/>
	<polygon id="서구_00000070079308241807456810000009906952303145040783_" class="st0" points="204.8,367.2 204.8,367.2 205,369.9    204,378.2 199.9,383.7 193.5,374 194.8,371.1 194.8,371.1 202.3,357.2 207.7,354.4 207.7,354.4 209,357.8  "/>
	<polygon id="중구_00000094613238931185809090000008225692606241301176_" class="st0" points="210.4,359.1 216,366.7 212.1,366.8    214,375.1 211.4,379.9 207,372.7 205,369.9 204.8,367.2 209,357.8  "/>
	<polygon id="동구_00000077295828839796765370000017862375135753146537_" class="st0" points="220.2,343.7 221.4,348.5 223,346.4    228.1,350.7 224.4,351.9 221.3,359.4 220.3,375.2 214.7,381.7 211.4,379.9 214,375.1 212.1,366.8 216,366.7 210.4,359.1    212.4,356.3 212.4,356.3 216.7,357.6 215.6,349.9  "/>
</g>
<g id="광주광역시">
	<polygon id="광산구" class="st0" points="112.7,550.4 111.4,545.4 114.9,541.4 112.5,538.3 120.5,535.3 126.3,528 125.7,531.9    135.9,532.8 139.1,539.5 136.3,540.6 131.6,553.9 127.5,557.5 122.6,550.8  "/>
	<polygon id="북구_00000166644947004510416370000000521895385418006683_" class="st0" points="141.6,529.2 146.1,528.2 153,540.4    159.8,541.6 158.1,547.7 157.5,549.7 149.1,543.3 145.1,544.9 136.3,540.6 139.1,539.5 135.9,532.8  "/>
	<polygon id="남구_00000057829278394348245060000007176446015815177360_" class="st0" points="131.6,553.9 142.6,550.3    142.3,545.7 145.4,545.3 146.6,554.3 143.1,556.4 133.5,560.3 125.6,559.4 127.5,557.5  "/>
	<polygon id="서구_00000160873284323135002220000003850002728341375910_" class="st0" points="136.3,540.6 145.1,544.9    145.4,545.3 142.3,545.7 142.6,550.3 131.6,553.9  "/>
	<polygon id="동구_00000183228372764615208210000009311056761204497822_" class="st0" points="145.1,544.9 149.1,543.3    157.5,549.7 150.7,557.2 146.6,554.3 145.4,545.3  "/>
</g>
<g id="대구광역시">
	<path id="달성군" class="st0" d="M346.4,440.7l9.2,6.6l4.1-5.5l0.5-0.2l3.6,0.5l0,0l7.9,2.4l1.5,7.2l0,0l-8.8,6.6l-1.5-5.6   l-10.7,4.1l0.3,4.6l-2.9,6.8l-17.1,4.6l3.8-4.4l-6.4-10.1l10.2-0.2l-6.3-8.6l4.7-7.7L346.4,440.7z M335.6,427.6l7-6.8l2.8,1.3   l-0.8,5.7l4.5,1l2.7,0.5l-0.8,2.9l-4.8,0.3l-1.1,5.4l-11-2.7L335.6,427.6z"/>
	<polygon id="달서구" class="st0" points="350.9,432.2 357.9,433.2 358,433.6 355.6,437.6 359.7,441.8 355.6,447.2 346.4,440.7    345,437.9 346.1,432.4  "/>
	<polygon id="수성구" class="st0" points="360.2,441.5 362.3,434.3 363.1,432.3 377.2,433.7 376.3,441.7 371.8,444.4 363.9,442     "/>
	<polygon id="북구" class="st0" points="361.4,413.5 365.2,424 362.5,431.2 358.6,430.6 351.7,429.3 349,428.8 351.2,424.8    352.1,423.7 352.2,423.1 352.6,422.3 351.9,414.8 355.9,415.9 356,415.9  "/>
	<polygon id="남구" class="st0" points="358,433.6 362.3,434.3 360.2,441.5 359.7,441.8 355.6,437.6  "/>
	<polygon id="서구_00000095322446012922971850000014221499316402633894_" class="st0" points="351.7,429.3 358.6,430.6    357.9,433.2 350.9,432.2  "/>
	<polygon id="동구_00000147187987661311838080000001073673105068167085_" class="st0" points="373.1,409 378.1,412.5 377.7,413.7    381.9,428.9 380.4,433.7 377.2,433.7 363.1,432.3 362.5,431.2 365.2,424 361.4,413.5 366.1,410 370.3,409.5  "/>
	<polygon id="중구_00000163049878399489232690000013879300824881561003_" class="st0" points="358.6,430.6 362.5,431.2    363.1,432.3 362.3,434.3 358,433.6 357.9,433.2  "/>
</g>
<g id="인천광역시">
	<path id="강화군" class="st0" d="M80.8,151.4l-3.4,3l-2.8-5.7l-6.4-4.8l2.7-5.1l3-1.1l1.9,0.7l-0.9,1.2l-0.1,4.5l4.4,2.4   l1.3,0.3l1.4,1.9l-0.2,0.8l-0.5,1.7L80.8,151.4z M77.5,154.6L77.5,154.6L77.5,154.6l-0.2,0.1L77.5,154.6z M60.3,134.1l7.6-7   l8.7,3.3l-0.5,1.2l0,0.1l-2.2,2.4l-1.8,1l-0.2,0l-3.4-0.4l-1.3,0.6l-3.4,2L60.3,134.1z M78.7,131.4l9.9-5.9l9.5,8.3l0.3,1.8   l0.3,0.9l1.6,2.1l-0.1,0.3l0,0.7l-0.1,0.2l-0.8,1.1l0,0l-0.5,1l0,0l0,0.7l-0.1,0.5l1.6,2.4l-0.4,0.4l-0.3,1.3l-0.1,1.4l0.9,6.2   l0.1,0.2l0.5,1.1l1.3,2l0.1,0.5l-3.6,2.8l-0.5,0.5l-4.4-0.3l-6.6,0.7l-1.7-0.2l-4.6-2.8l-0.6-3.7l5.9-3.2l-2.7-4.7l-2-2.3l-1.8-0.5   l-1-2.1l0.2-3.7L78.7,131.4L78.7,131.4z"/>
	<path id="서구" class="st0" d="M108.8,169.5l8.3-4.3l-9-2.4l7.7-7.2l9,7.5l-5.4,1.2l3.7,4.9l-2.9,4.5L120,182l-0.3-0.1l-1.4-0.6   l-4.3-4.5l-2.1,1.2l-1.1,0l-1.2,0l0-2.1l-0.2-1.1L108.8,169.5z"/>
	<polygon id="계양구" class="st0" points="124.8,163.1 133.3,164.8 129.8,169 129,173.7 120.2,173.7 123.1,169.2 119.4,164.3     "/>
	<polygon id="부평구" class="st0" points="129,173.7 126.8,179.5 129.9,181.9 120,182 120.2,173.7  "/>
	<polygon id="남동구" class="st0" points="126.9,192.3 126.8,192.8 126.2,193.6 124.7,195.2 119.4,195.2 117.3,194.3    121.7,186.9 119.7,181.9 120,182 129.9,181.9 131.2,181.9 127.9,191 127.9,191.1 127.8,191.4 127.8,191.4  "/>
	<polygon id="연수구" class="st0" points="111.6,202.1 106.7,201.2 115.7,199.9 110.1,195 109.5,189 109.9,188.8 111.9,188.8    113.3,188.2 121.7,186.9 117.3,194.3 117.2,194.3 119.4,195.2 119.8,197 117,200.5 116.7,200.8 113.9,202.1  "/>
	<path id="중구_00000090283923639619113360000014432887308064126373_" class="st0" d="M85.4,191.1l3.4,5.5l-0.5,0.6l-1.2,0.6   l-3.7-3.8l1.5-3.1L85.4,191.1z M110,179.4l-0.4,1l1.1-0.4l3.5,2.3l-1.6,4.2l-0.9,1.8l-1.1,0l-0.5,0l-0.1-0.1l0.1-3.8l-2.1,2.4   l-0.4-3.6l1.1-0.6l0-0.1l-0.3-1.5L110,179.4z M96.5,172.4l7.4,2.3l0.7,0l2.2,4.2l-17.7,10.6l-1.7-0.3l-1.6,1l-0.3-0.1l-2.1-4.7   l-3.9,0.7l-0.5-4.8l6.7-3.1l3.4-0.7l2.2-0.1l1.9-0.1l2.8-2.7l0.2-1.4L96.5,172.4z M109,182.6L109,182.6L109,182.6L109,182.6   L109,182.6z"/>
	<path id="옹진군" class="st0" d="M18.3,189L18.3,189L18.3,189L18.3,189L18.3,189z M18.3,189L18.3,189l-0.2,0L18.3,189z    M17.9,182.7l-0.2,0l-5.6,3.9L15,190l3.8-1.9L17.9,182.7L17.9,182.7z M89.7,174.4l2.5,0.9l0.6,0l-0.1-1.1l0.5-1.5l0,0l0-1.1l-1-0.8   l-0.4-0.4l-3.7,4.1l0.8,0.5L89.7,174.4z M46.8,212l-2.5,7.9l6.5,1.7l1.2-0.3l-0.4-1l2.6-1.7L46.8,212z M16.2,168.2l-6.1,1.7   l-2.6-1.8l2.3,8.8l7.3,1.3l6.3-6.1l-2.8-4L16.2,168.2z M88,212.5l-0.4,6.4l1,0.3l1.6-1.8l0.9,3l4.8-6.6l0.1-1.6L88,212.5z    M51.7,220.3L51.7,220.3L51.7,220.3L51.7,220.3z M42.9,188l-3.2-0.2l-0.2,1.8l3,1.5v-1.5L42.9,188z"/>
	<polygon id="동구" class="st0" points="113.6,178 118.3,181.2 114.3,182.3 110.5,179.9 110.3,179.3 111.1,178.9 111.2,178.9    112.3,178.5  "/>
	<polygon id="미추홀구" class="st0" points="114.3,182.3 118.3,181.2 119.7,181.9 121.7,186.9 113.3,188.2 112.8,187.2    112.7,186.5  "/>
</g>
<g id="부산광역시">
	<path id="기장군" class="st0" d="M452.4,515.1l-5.5,2.4l-6.4,21l-6.3-3.7l-2.1-6.9l-4.8-8.3l3.2-7.4l-2.1-2.7l7.7,2.6l2.9-5.7   l8.2,0L452.4,515.1z"/>
	<polygon id="사상구" class="st0" points="412.1,535.9 416.4,538 415.4,545.8 413.9,548.1 408.7,549 408.7,546.1  "/>
	<polygon id="수영구" class="st0" points="428.6,538 430.1,541.2 430,541.3 430.7,542.1 429,545.2 426.1,541.9 428.5,538.4  "/>
	<polygon id="연제구" class="st0" points="419.9,536.8 428.5,538.4 426.1,541.9 424.4,542.5  "/>
	<path id="강서구_00000005965601791535691050000009006076288229410219_" class="st0" d="M391.9,553.6l0.9,1.2l2,6.3l-2.7,8.3   l-4.1-10.1l3.6-2.5l-1.9-1.2L391.9,553.6z M404.9,552.6l0.2,0.1l0,0.3l-2.4,2.2l-9.5-0.5l-1-1.1l1.7-3.6l-6.4-6.8l8.9-1.8l1.6,2.7   l1.1-9.9l14.2-3.7l-1.1,5.4l0,0l-3.5,10.2l0,0l-3.4,4.7L404.9,552.6z"/>
	<polygon id="금정구" class="st0" points="432.1,527.8 427.8,534.3 421.6,531.9 419.3,531.2 419.6,524.4 427.4,519.5  "/>
	<path id="사하구" class="st0" d="M407.7,554.9l-2.4-1.9l0-0.4l0.3-1.6l0-0.1l2.9-4.9l0,3l5.2-0.9l1.1,11.6l-4.4-1.2l-0.1,3   l-2-3.3L407.7,554.9z"/>
	<path id="해운대구" class="st0" d="M427.8,534.3l4.3-6.5l2.1,6.9l6.3,3.7l-1.8,3.3l-6.6,1.1l-0.9-1l-1.1-0.6l-1.5-3.2   L427.8,534.3z"/>
	<polygon id="북구_00000147926145647962615330000006782993992366670232_" class="st0" points="412.1,535.9 413.2,530.5    415.3,524.5 419.6,524.4 419.3,531.2 421.6,531.9 419.4,536.1 416.4,538  "/>
	<path id="남구_00000052072439607353513050000004236392404629863311_" class="st0" d="M426.3,552.5l-0.4-2.4l-3.4-0.3l-0.1-2.6   l-0.3-2.1l2.3-2.7l1.6-0.5l3.4,4l0.4,5.6L426.3,552.5z"/>
	<polygon id="동래구" class="st0" points="421.6,531.9 427.8,534.3 428.6,538 428.5,538.4 419.9,536.8 419.4,536.1  "/>
	<polygon id="부산진구" class="st0" points="416.4,538 419.4,536.1 419.9,536.8 424.4,542.5 422.1,545.1 417.2,546.1    415.4,545.8  "/>
	<path id="영도구" class="st0" d="M424,553.6l1.9,5.5l-7.7-5.1l-0.2-1.2l0.2-0.3l0.9-0.2l0.1,0l0.5-0.2L424,553.6L424,553.6z"/>
	<polygon id="동구_00000168118645732070697520000016326732679638779068_" class="st0" points="417.2,546.1 422.1,545.1    422.2,547.2 422.2,547.3 420.3,549.6 417.4,549.2  "/>
	<path id="서구_00000120547725597948363590000012183695143128138397_" class="st0" d="M417,555.5l-0.2,2.3l-1.7,1.7l-1.3-11.3   l1.6-2.2l1.7,0.2l0.3,3.2l0,3.9l0.5,0.7L417,555.5z"/>
	<polygon id="중구_00000099627018138385645060000002418025641920964788_" class="st0" points="417.4,552.5 418.6,552.2    420.3,549.6 417.4,549.2  "/>
</g>
<g id="서울특별시">
	<polygon id="강동구" class="st0" points="179.9,165.4 181.8,170.7 177,175.1 172.5,171 173.3,168.9  "/>
	<polygon id="송파구" class="st0" points="172.5,171 177,175.1 176.8,181.9 174.3,183 172.5,178.7 168.3,177.4 167.3,173.9    171.3,172.4  "/>
	<polygon id="강남구" class="st0" points="161.1,172.4 165.9,173.3 167.3,173.9 168.3,177.4 172.5,178.7 174.3,183 170.7,184.6    169.5,181.6 165.2,182.9 160,173.7  "/>
	<polygon id="서초구" class="st0" points="160,173.7 165.2,182.9 169.5,181.6 170.7,184.6 164.7,188.6 163.2,183.3 157.4,184.2    156.6,181.4 156.5,176.7  "/>
	<polygon id="관악구" class="st0" points="146.8,180 153.9,178.7 156.6,181.4 157.4,184.2 154.3,186.9 152.4,187.3 149.9,185.4    146.3,180.9 146.8,180  "/>
	<polygon id="동작구" class="st0" points="152.7,174.9 156.5,176.7 156.6,181.4 153.9,178.7 146.8,180  "/>
	<polygon id="영등포구" class="st0" points="144.1,168.8 152,172.4 152.7,174.9 146.8,180 146.8,180 143.9,174.8 144.8,171.4    144.1,170.1  "/>
	<polygon id="금천구" class="st0" points="143.2,179.9 146.3,180.9 149.9,185.4 146.2,187.2  "/>
	<polygon id="구로구" class="st0" points="143.9,174.8 146.8,180 146.3,180.9 143.2,179.9 138.1,181.1 135.8,181.5 137.3,176.2     "/>
	<polygon id="강서구" class="st0" points="134.4,161.1 140.7,166.4 144.1,168.8 144.1,170.1 139,173.4 136.8,171.2 129.8,169    133.3,164.8  "/>
	<polygon id="양천구" class="st0" points="136.8,171.2 139,173.4 144.1,170.1 144.8,171.4 144.8,171.4 143.9,174.8 137.3,176.2     "/>
	<polygon id="마포구" class="st0" points="144.3,163.4 146.8,165.7 154.2,168.4 154.2,169.6 152,172.4 144.1,168.8 140.7,166.4     "/>
	<polygon id="서대문구" class="st0" points="152.8,160.4 154.8,167.4 154.2,168.4 146.8,165.7  "/>
	<polygon id="은평구" class="st0" points="144.3,163.4 146.8,162.7 147.2,154.3 152.5,152.8 153.8,157.4 152.8,160.4    146.8,165.7  "/>
	<polygon id="노원구" class="st0" points="172.8,155.5 172.1,158.9 167.7,159.7 165.2,158.3 164.3,157.3 165.5,148.7    169.1,147.1  "/>
	<polygon id="도봉구" class="st0" points="164.3,157.3 160.1,148.9 161,146.2 165.5,148.7  "/>
	<polygon id="강북구" class="st0" points="158.1,149.6 160.1,148.9 164.3,157.3 165.2,158.3 162.7,160.7 157.3,156.5    157.1,156.4 157,156.4  "/>
	<polygon id="성북구" class="st0" points="161.8,165.5 156.1,162.4 155.9,157.1 155.9,157.1 157.3,156.5 162.7,160.7    165.2,158.3 167.7,159.7 167.8,160.9 161.8,165.5 161.8,165.5  "/>
	<polygon id="중랑구" class="st0" points="172.1,158.9 171.5,166.2 168.7,166.5 168.7,166.5 168.6,166.3 168.6,166.3    167.8,160.9 167.7,159.7  "/>
	<polygon id="동대문구" class="st0" points="167.8,160.9 168.6,166.3 168.7,166.5 168.4,167.3 168.4,167.3 168,168.4    161.9,166.5 161.9,166.5 161.8,165.5  "/>
	<polygon id="광진구" class="st0" points="171.5,166.2 173.3,168.9 172.5,171 171.3,172.4 171.3,172.4 167.3,173.9 165.9,173.3    168,168.4 168.4,167.3 168.7,166.5  "/>
	<polygon id="용산구" class="st0" points="154.2,169.6 160,170.8 161.1,172.4 160,173.7 156.5,176.7 152.7,174.9 152,172.4  "/>
	<polygon id="중구" class="st0" points="154.8,167.4 161.9,166.5 161.9,166.5 160,170.8 154.2,169.6 154.2,168.4  "/>
	<polygon id="종로구" class="st0" points="155.9,157.1 156.1,162.4 161.8,165.5 161.8,165.5 161.9,166.5 154.8,167.4    152.8,160.4 153.8,157.4  "/>
	<polygon id="성동구" class="st0" points="161.9,166.5 168,168.4 165.9,173.3 161.1,172.4 160,170.8  "/>
</g>
<g id="레이어_1">
	<path class="st1" d="M499.2,715.6h-133v-85h133V715.6z"/>
	<path class="st1" d="M31,194.4H0.5v-30.5H31V194.4z"/>
	<path class="st1" d="M46.2,194.1H36v-10.2h10.2V194.1z"/>
	<path class="st1" d="M497,370.9h-24v-24h24V370.9z"/>
	<path class="st1" d="M508.5,370.6h-8.2v-8.2h8.2V370.6z"/>
</g>
</svg>